<svg width="268" height="31" viewBox="0 0 268 31" fill="none" xmlns="http://www.w3.org/2000/svg">
<mask id="path-1-outside-1_618_3" maskUnits="userSpaceOnUse" x="-0.523438" y="-0.641602" width="268" height="32" fill="black">
<rect fill="white" x="-0.523438" y="-0.641602" width="268" height="32"/>
<path d="M1.55656 29.3584L14.3566 1.3584H17.2766L30.0766 29.3584H26.9566L15.1966 3.0784H16.3966L4.63656 29.3584H1.55656ZM6.59656 21.8784L7.47656 19.4784H23.7566L24.6366 21.8784H6.59656ZM45.4025 29.5984C41.8292 29.5984 39.0158 28.5717 36.9625 26.5184C34.9092 24.4651 33.8825 21.4251 33.8825 17.3984V1.3584H36.8425V17.2784C36.8425 20.5851 37.5892 23.0251 39.0825 24.5984C40.5758 26.1717 42.6825 26.9584 45.4025 26.9584C48.1492 26.9584 50.2692 26.1717 51.7625 24.5984C53.2558 23.0251 54.0025 20.5851 54.0025 17.2784V1.3584H56.8825V17.3984C56.8825 21.4251 55.8558 24.4651 53.8025 26.5184C51.7758 28.5717 48.9758 29.5984 45.4025 29.5984ZM70.6953 29.3584V3.9184H60.8553V1.3584H83.4953V3.9184H73.6553V29.3584H70.6953ZM100.073 29.5984C97.9668 29.5984 96.0068 29.2517 94.1934 28.5584C92.4068 27.8384 90.8468 26.8384 89.5134 25.5584C88.2068 24.2517 87.1801 22.7451 86.4334 21.0384C85.7134 19.3051 85.3534 17.4117 85.3534 15.3584C85.3534 13.3051 85.7134 11.4251 86.4334 9.7184C87.1801 7.98506 88.2068 6.4784 89.5134 5.1984C90.8468 3.89173 92.4068 2.89173 94.1934 2.1984C95.9801 1.4784 97.9401 1.1184 100.073 1.1184C102.18 1.1184 104.127 1.4784 105.913 2.1984C107.7 2.89173 109.247 3.8784 110.553 5.1584C111.887 6.4384 112.913 7.94506 113.633 9.6784C114.38 11.4117 114.753 13.3051 114.753 15.3584C114.753 17.4117 114.38 19.3051 113.633 21.0384C112.913 22.7717 111.887 24.2784 110.553 25.5584C109.247 26.8384 107.7 27.8384 105.913 28.5584C104.127 29.2517 102.18 29.5984 100.073 29.5984ZM100.073 26.9584C101.753 26.9584 103.3 26.6784 104.713 26.1184C106.153 25.5317 107.393 24.7184 108.433 23.6784C109.5 22.6117 110.327 21.3851 110.913 19.9984C111.5 18.5851 111.793 17.0384 111.793 15.3584C111.793 13.6784 111.5 12.1451 110.913 10.7584C110.327 9.34506 109.5 8.1184 108.433 7.0784C107.393 6.01173 106.153 5.1984 104.713 4.6384C103.3 4.05173 101.753 3.7584 100.073 3.7584C98.3934 3.7584 96.8334 4.05173 95.3934 4.6384C93.9534 5.1984 92.7001 6.01173 91.6334 7.0784C90.5934 8.1184 89.7668 9.34506 89.1534 10.7584C88.5668 12.1451 88.2734 13.6784 88.2734 15.3584C88.2734 17.0117 88.5668 18.5451 89.1534 19.9584C89.7668 21.3717 90.5934 22.6117 91.6334 23.6784C92.7001 24.7184 93.9534 25.5317 95.3934 26.1184C96.8334 26.6784 98.3934 26.9584 100.073 26.9584ZM133.548 29.5984C131.441 29.5984 129.495 29.2517 127.708 28.5584C125.921 27.8384 124.375 26.8384 123.068 25.5584C121.761 24.2784 120.735 22.7717 119.988 21.0384C119.268 19.3051 118.908 17.4117 118.908 15.3584C118.908 13.3051 119.268 11.4117 119.988 9.6784C120.735 7.94506 121.761 6.4384 123.068 5.1584C124.401 3.8784 125.961 2.89173 127.748 2.1984C129.535 1.4784 131.481 1.1184 133.588 1.1184C135.615 1.1184 137.521 1.46506 139.308 2.1584C141.095 2.82506 142.601 3.8384 143.828 5.1984L141.948 7.0784C140.801 5.90506 139.535 5.06506 138.148 4.5584C136.761 4.02506 135.268 3.7584 133.668 3.7584C131.988 3.7584 130.428 4.05173 128.988 4.6384C127.548 5.1984 126.295 6.01173 125.228 7.0784C124.161 8.1184 123.321 9.34506 122.708 10.7584C122.121 12.1451 121.828 13.6784 121.828 15.3584C121.828 17.0384 122.121 18.5851 122.708 19.9984C123.321 21.3851 124.161 22.6117 125.228 23.6784C126.295 24.7184 127.548 25.5317 128.988 26.1184C130.428 26.6784 131.988 26.9584 133.668 26.9584C135.268 26.9584 136.761 26.6917 138.148 26.1584C139.535 25.6251 140.801 24.7717 141.948 23.5984L143.828 25.4784C142.601 26.8384 141.095 27.8651 139.308 28.5584C137.521 29.2517 135.601 29.5984 133.548 29.5984ZM161.792 29.5984C159.686 29.5984 157.726 29.2517 155.912 28.5584C154.126 27.8384 152.566 26.8384 151.232 25.5584C149.926 24.2517 148.899 22.7451 148.152 21.0384C147.432 19.3051 147.072 17.4117 147.072 15.3584C147.072 13.3051 147.432 11.4251 148.152 9.7184C148.899 7.98506 149.926 6.4784 151.232 5.1984C152.566 3.89173 154.126 2.89173 155.912 2.1984C157.699 1.4784 159.659 1.1184 161.792 1.1184C163.899 1.1184 165.846 1.4784 167.632 2.1984C169.419 2.89173 170.966 3.8784 172.272 5.1584C173.606 6.4384 174.632 7.94506 175.352 9.6784C176.099 11.4117 176.472 13.3051 176.472 15.3584C176.472 17.4117 176.099 19.3051 175.352 21.0384C174.632 22.7717 173.606 24.2784 172.272 25.5584C170.966 26.8384 169.419 27.8384 167.632 28.5584C165.846 29.2517 163.899 29.5984 161.792 29.5984ZM161.792 26.9584C163.472 26.9584 165.019 26.6784 166.432 26.1184C167.872 25.5317 169.112 24.7184 170.152 23.6784C171.219 22.6117 172.046 21.3851 172.632 19.9984C173.219 18.5851 173.512 17.0384 173.512 15.3584C173.512 13.6784 173.219 12.1451 172.632 10.7584C172.046 9.34506 171.219 8.1184 170.152 7.0784C169.112 6.01173 167.872 5.1984 166.432 4.6384C165.019 4.05173 163.472 3.7584 161.792 3.7584C160.112 3.7584 158.552 4.05173 157.112 4.6384C155.672 5.1984 154.419 6.01173 153.352 7.0784C152.312 8.1184 151.486 9.34506 150.872 10.7584C150.286 12.1451 149.992 13.6784 149.992 15.3584C149.992 17.0117 150.286 18.5451 150.872 19.9584C151.486 21.3717 152.312 22.6117 153.352 23.6784C154.419 24.7184 155.672 25.5317 157.112 26.1184C158.552 26.6784 160.112 26.9584 161.792 26.9584ZM183.107 29.3584V1.3584H194.507C197.494 1.3584 200.107 1.9584 202.347 3.1584C204.614 4.33173 206.374 5.97173 207.627 8.0784C208.88 10.1851 209.507 12.6117 209.507 15.3584C209.507 18.1051 208.88 20.5317 207.627 22.6384C206.374 24.7451 204.614 26.3984 202.347 27.5984C200.107 28.7717 197.494 29.3584 194.507 29.3584H183.107ZM186.067 26.7984H194.347C196.827 26.7984 198.974 26.3184 200.787 25.3584C202.627 24.3717 204.054 23.0251 205.067 21.3184C206.08 19.5851 206.587 17.5984 206.587 15.3584C206.587 13.0917 206.08 11.1051 205.067 9.3984C204.054 7.69173 202.627 6.3584 200.787 5.3984C198.974 4.41173 196.827 3.9184 194.347 3.9184H186.067V26.7984ZM218.794 13.8784H233.594V16.3984H218.794V13.8784ZM219.114 26.7984H235.954V29.3584H216.154V1.3584H235.354V3.9184H219.114V26.7984ZM242.912 29.3584V1.3584H253.392C255.765 1.3584 257.805 1.74506 259.512 2.5184C261.218 3.26506 262.525 4.3584 263.432 5.7984C264.365 7.21173 264.832 8.93173 264.832 10.9584C264.832 12.9317 264.365 14.6384 263.432 16.0784C262.525 17.4917 261.218 18.5851 259.512 19.3584C257.805 20.1051 255.765 20.4784 253.392 20.4784H244.552L245.872 19.1184V29.3584H242.912ZM262.032 29.3584L254.832 19.1984H258.032L265.272 29.3584H262.032ZM245.872 19.3584L244.552 17.9584H253.312C256.112 17.9584 258.232 17.3451 259.672 16.1184C261.138 14.8917 261.872 13.1717 261.872 10.9584C261.872 8.7184 261.138 6.98506 259.672 5.7584C258.232 4.53173 256.112 3.9184 253.312 3.9184H244.552L245.872 2.5184V19.3584Z"/>
</mask>
<path d="M1.55656 29.3584L0.647088 28.9426L-0.000116443 30.3584H1.55656V29.3584ZM14.3566 1.3584V0.358397H13.7142L13.4471 0.942637L14.3566 1.3584ZM17.2766 1.3584L18.186 0.942637L17.919 0.358397H17.2766V1.3584ZM30.0766 29.3584V30.3584H31.6332L30.986 28.9426L30.0766 29.3584ZM26.9566 29.3584L26.0438 29.7669L26.3085 30.3584H26.9566V29.3584ZM15.1966 3.0784V2.0784H13.6535L14.2838 3.48686L15.1966 3.0784ZM16.3966 3.0784L17.3093 3.48686L17.9396 2.0784H16.3966V3.0784ZM4.63656 29.3584V30.3584H5.28463L5.54934 29.7669L4.63656 29.3584ZM6.59656 21.8784L5.65769 21.5341L5.16479 22.8784H6.59656V21.8784ZM7.47656 19.4784V18.4784H6.77813L6.53769 19.1341L7.47656 19.4784ZM23.7566 19.4784L24.6954 19.1341L24.455 18.4784H23.7566V19.4784ZM24.6366 21.8784V22.8784H26.0683L25.5754 21.5341L24.6366 21.8784ZM1.55656 29.3584L2.46604 29.7742L15.266 1.77416L14.3566 1.3584L13.4471 0.942637L0.647088 28.9426L1.55656 29.3584ZM14.3566 1.3584V2.3584H17.2766V1.3584V0.358397H14.3566V1.3584ZM17.2766 1.3584L16.3671 1.77416L29.1671 29.7742L30.0766 29.3584L30.986 28.9426L18.186 0.942637L17.2766 1.3584ZM30.0766 29.3584V28.3584H26.9566V29.3584V30.3584H30.0766V29.3584ZM26.9566 29.3584L27.8693 28.9499L16.1093 2.66994L15.1966 3.0784L14.2838 3.48686L26.0438 29.7669L26.9566 29.3584ZM15.1966 3.0784V4.0784H16.3966V3.0784V2.0784H15.1966V3.0784ZM16.3966 3.0784L15.4838 2.66994L3.72379 28.9499L4.63656 29.3584L5.54934 29.7669L17.3093 3.48686L16.3966 3.0784ZM4.63656 29.3584V28.3584H1.55656V29.3584V30.3584H4.63656V29.3584ZM6.59656 21.8784L7.53544 22.2227L8.41544 19.8227L7.47656 19.4784L6.53769 19.1341L5.65769 21.5341L6.59656 21.8784ZM7.47656 19.4784V20.4784H23.7566V19.4784V18.4784H7.47656V19.4784ZM23.7566 19.4784L22.8177 19.8227L23.6977 22.2227L24.6366 21.8784L25.5754 21.5341L24.6954 19.1341L23.7566 19.4784ZM24.6366 21.8784V20.8784H6.59656V21.8784V22.8784H24.6366V21.8784ZM36.9625 26.5184L36.2554 27.2255L36.2554 27.2255L36.9625 26.5184ZM33.8825 1.3584V0.358397H32.8825V1.3584H33.8825ZM36.8425 1.3584H37.8425V0.358397H36.8425V1.3584ZM39.0825 24.5984L39.8078 23.91L39.0825 24.5984ZM54.0025 1.3584V0.358397H53.0025V1.3584H54.0025ZM56.8825 1.3584H57.8825V0.358397H56.8825V1.3584ZM53.8025 26.5184L53.0954 25.8113L53.0908 25.8159L53.8025 26.5184ZM45.4025 29.5984V28.5984C42.0295 28.5984 39.494 27.6357 37.6696 25.8113L36.9625 26.5184L36.2554 27.2255C38.5377 29.5078 41.6289 30.5984 45.4025 30.5984V29.5984ZM36.9625 26.5184L37.6696 25.8113C35.8666 24.0083 34.8825 21.2643 34.8825 17.3984H33.8825H32.8825C32.8825 21.5858 33.9517 24.9218 36.2554 27.2255L36.9625 26.5184ZM33.8825 17.3984H34.8825V1.3584H33.8825H32.8825V17.3984H33.8825ZM33.8825 1.3584V2.3584H36.8425V1.3584V0.358397H33.8825V1.3584ZM36.8425 1.3584H35.8425V17.2784H36.8425H37.8425V1.3584H36.8425ZM36.8425 17.2784H35.8425C35.8425 20.7104 36.6143 23.4506 38.3572 25.2868L39.0825 24.5984L39.8078 23.91C38.564 22.5995 37.8425 20.4597 37.8425 17.2784H36.8425ZM39.0825 24.5984L38.3572 25.2868C40.0849 27.1071 42.4823 27.9584 45.4025 27.9584V26.9584V25.9584C42.8827 25.9584 41.0668 25.2364 39.8078 23.91L39.0825 24.5984ZM45.4025 26.9584V27.9584C48.346 27.9584 50.7583 27.109 52.4878 25.2868L51.7625 24.5984L51.0372 23.91C49.7801 25.2344 47.9523 25.9584 45.4025 25.9584V26.9584ZM51.7625 24.5984L52.4878 25.2868C54.2307 23.4506 55.0025 20.7104 55.0025 17.2784H54.0025H53.0025C53.0025 20.4597 52.281 22.5995 51.0372 23.91L51.7625 24.5984ZM54.0025 17.2784H55.0025V1.3584H54.0025H53.0025V17.2784H54.0025ZM54.0025 1.3584V2.3584H56.8825V1.3584V0.358397H54.0025V1.3584ZM56.8825 1.3584H55.8825V17.3984H56.8825H57.8825V1.3584H56.8825ZM56.8825 17.3984H55.8825C55.8825 21.2643 54.8984 24.0083 53.0954 25.8113L53.8025 26.5184L54.5096 27.2255C56.8133 24.9218 57.8825 21.5858 57.8825 17.3984H56.8825ZM53.8025 26.5184L53.0908 25.8159C51.2948 27.6356 48.7761 28.5984 45.4025 28.5984V29.5984V30.5984C49.1756 30.5984 52.2569 29.5079 54.5142 27.2209L53.8025 26.5184ZM70.6953 29.3584H69.6953V30.3584H70.6953V29.3584ZM70.6953 3.9184H71.6953V2.9184H70.6953V3.9184ZM60.8553 3.9184H59.8553V4.9184H60.8553V3.9184ZM60.8553 1.3584V0.358397H59.8553V1.3584H60.8553ZM83.4953 1.3584H84.4953V0.358397H83.4953V1.3584ZM83.4953 3.9184V4.9184H84.4953V3.9184H83.4953ZM73.6553 3.9184V2.9184H72.6553V3.9184H73.6553ZM73.6553 29.3584V30.3584H74.6553V29.3584H73.6553ZM70.6953 29.3584H71.6953V3.9184H70.6953H69.6953V29.3584H70.6953ZM70.6953 3.9184V2.9184H60.8553V3.9184V4.9184H70.6953V3.9184ZM60.8553 3.9184H61.8553V1.3584H60.8553H59.8553V3.9184H60.8553ZM60.8553 1.3584V2.3584H83.4953V1.3584V0.358397H60.8553V1.3584ZM83.4953 1.3584H82.4953V3.9184H83.4953H84.4953V1.3584H83.4953ZM83.4953 3.9184V2.9184H73.6553V3.9184V4.9184H83.4953V3.9184ZM73.6553 3.9184H72.6553V29.3584H73.6553H74.6553V3.9184H73.6553ZM73.6553 29.3584V28.3584H70.6953V29.3584V30.3584H73.6553V29.3584ZM94.1934 28.5584L93.8197 29.4859L93.828 29.4893L93.8363 29.4925L94.1934 28.5584ZM89.5134 25.5584L88.8063 26.2655L88.8135 26.2727L88.8209 26.2798L89.5134 25.5584ZM86.4334 21.0384L85.5099 21.422L85.5135 21.4306L85.5173 21.4392L86.4334 21.0384ZM86.4334 9.7184L85.515 9.32276L85.5121 9.3297L86.4334 9.7184ZM89.5134 5.1984L90.2132 5.91276L90.2134 5.91261L89.5134 5.1984ZM94.1934 2.1984L94.5552 3.13074L94.5672 3.12592L94.1934 2.1984ZM105.913 2.1984L105.54 3.12599L105.552 3.13066L105.913 2.1984ZM110.553 5.1584L109.854 5.87279L109.861 5.87979L110.553 5.1584ZM113.633 9.6784L112.71 10.062L112.715 10.074L113.633 9.6784ZM113.633 21.0384L112.715 20.6427L112.71 20.6548L113.633 21.0384ZM110.553 25.5584L109.861 24.837L109.854 24.844L110.553 25.5584ZM105.913 28.5584L106.275 29.4907L106.287 29.4859L105.913 28.5584ZM104.713 26.1184L105.082 27.0481L105.091 27.0445L104.713 26.1184ZM108.433 23.6784L107.726 22.9713L107.726 22.9713L108.433 23.6784ZM110.913 19.9984L111.834 20.388L111.837 20.3818L110.913 19.9984ZM110.913 10.7584L109.99 11.1418L109.992 11.148L110.913 10.7584ZM108.433 7.0784L107.717 7.7765L107.726 7.78556L107.735 7.7944L108.433 7.0784ZM104.713 4.6384L104.33 5.56199L104.34 5.56631L104.351 5.5704L104.713 4.6384ZM95.3934 4.6384L95.7559 5.5704L95.7633 5.5675L95.7707 5.56449L95.3934 4.6384ZM91.6334 7.0784L90.9263 6.37129L90.9263 6.37129L91.6334 7.0784ZM89.1534 10.7584L88.2361 10.3603L88.2325 10.3688L89.1534 10.7584ZM89.1534 19.9584L88.2298 20.3418L88.2329 20.3492L88.2361 20.3565L89.1534 19.9584ZM91.6334 23.6784L90.9174 24.3765L90.9263 24.3856L90.9353 24.3944L91.6334 23.6784ZM95.3934 26.1184L95.0161 27.0445L95.0235 27.0475L95.031 27.0504L95.3934 26.1184ZM100.073 29.5984V28.5984C98.0784 28.5984 96.2405 28.2705 94.5506 27.6243L94.1934 28.5584L93.8363 29.4925C95.773 30.233 97.8551 30.5984 100.073 30.5984V29.5984ZM94.1934 28.5584L94.5672 27.6309C92.8939 26.9566 91.4433 26.0249 90.206 24.837L89.5134 25.5584L88.8209 26.2798C90.2502 27.6519 91.9196 28.7202 93.8197 29.4859L94.1934 28.5584ZM89.5134 25.5584L90.2205 24.8513C89.0028 23.6335 88.0467 22.231 87.3496 20.6376L86.4334 21.0384L85.5173 21.4392C86.3135 23.2592 87.4108 24.8699 88.8063 26.2655L89.5134 25.5584ZM86.4334 21.0384L87.3569 20.6548C86.692 19.054 86.3534 17.2925 86.3534 15.3584H85.3534H84.3534C84.3534 17.5309 84.7349 19.5561 85.5099 21.422L86.4334 21.0384ZM85.3534 15.3584H86.3534C86.3534 13.4241 86.6921 11.678 87.3548 10.1071L86.4334 9.7184L85.5121 9.3297C84.7348 11.1721 84.3534 13.1861 84.3534 15.3584H85.3534ZM86.4334 9.7184L87.3519 10.114C88.0487 8.49626 89.0024 7.09883 90.2132 5.91276L89.5134 5.1984L88.8137 4.48404C87.4111 5.85796 86.3115 7.47387 85.515 9.32277L86.4334 9.7184ZM89.5134 5.1984L90.2134 5.91261C91.4473 4.70334 92.8914 3.77631 94.5552 3.13066L94.1934 2.1984L93.8317 1.26613C91.9221 2.00715 90.2462 3.08012 88.8135 4.48418L89.5134 5.1984ZM94.1934 2.1984L94.5672 3.12592C96.2229 2.45868 98.0544 2.1184 100.073 2.1184V1.1184V0.118397C97.8258 0.118397 95.7373 0.498111 93.8197 1.27088L94.1934 2.1984ZM100.073 1.1184V2.1184C102.064 2.1184 103.882 2.4581 105.54 3.12592L105.913 2.1984L106.287 1.27088C104.371 0.498699 102.296 0.118397 100.073 0.118397V1.1184ZM105.913 2.1984L105.552 3.13066C107.218 3.77738 108.648 4.69204 109.854 5.87276L110.553 5.1584L111.253 4.44404C109.845 3.06476 108.182 2.00608 106.275 1.26613L105.913 2.1984ZM110.553 5.1584L109.861 5.87979C111.093 7.0628 112.042 8.45395 112.71 10.062L113.633 9.6784L114.557 9.29479C113.785 7.43618 112.68 5.81399 111.246 4.43701L110.553 5.1584ZM113.633 9.6784L112.715 10.074C113.403 11.6718 113.753 13.429 113.753 15.3584H114.753H115.753C115.753 13.1811 115.357 11.1517 114.552 9.28277L113.633 9.6784ZM114.753 15.3584H113.753C113.753 17.2878 113.403 19.045 112.715 20.6428L113.633 21.0384L114.552 21.434C115.357 19.5651 115.753 17.5357 115.753 15.3584H114.753ZM113.633 21.0384L112.71 20.6548C112.042 22.2628 111.093 23.654 109.861 24.837L110.553 25.5584L111.246 26.2798C112.68 24.9028 113.785 23.2806 114.557 21.422L113.633 21.0384ZM110.553 25.5584L109.854 24.844C108.646 26.0275 107.211 26.9572 105.54 27.6309L105.913 28.5584L106.287 29.4859C108.189 28.7196 109.848 27.6493 111.253 26.2728L110.553 25.5584ZM105.913 28.5584L105.552 27.6261C103.891 28.2705 102.069 28.5984 100.073 28.5984V29.5984V30.5984C102.292 30.5984 104.362 30.233 106.275 29.4907L105.913 28.5584ZM100.073 26.9584V27.9584C101.866 27.9584 103.539 27.6592 105.082 27.0481L104.713 26.1184L104.345 25.1887C103.061 25.6976 101.641 25.9584 100.073 25.9584V26.9584ZM104.713 26.1184L105.091 27.0445C106.647 26.4105 108.001 25.5251 109.141 24.3855L108.433 23.6784L107.726 22.9713C106.786 23.9117 105.66 24.653 104.336 25.1923L104.713 26.1184ZM108.433 23.6784L109.141 24.3855C110.298 23.228 111.197 21.8935 111.834 20.388L110.913 19.9984L109.992 19.6088C109.456 20.8766 108.702 21.9955 107.726 22.9713L108.433 23.6784ZM110.913 19.9984L111.837 20.3818C112.479 18.8355 112.793 17.157 112.793 15.3584H111.793H110.793C110.793 16.9198 110.521 18.3346 109.99 19.615L110.913 19.9984ZM111.793 15.3584H112.793C112.793 13.5601 112.479 11.8922 111.834 10.3688L110.913 10.7584L109.992 11.148C110.521 12.3979 110.793 13.7967 110.793 15.3584H111.793ZM110.913 10.7584L111.837 10.375C111.2 8.84018 110.298 7.49947 109.132 6.3624L108.433 7.0784L107.735 7.7944C108.702 8.73733 109.454 9.84995 109.99 11.1418L110.913 10.7584ZM108.433 7.0784L109.149 6.3803C108.006 5.20747 106.644 4.31623 105.076 3.70639L104.713 4.6384L104.351 5.5704C105.663 6.08057 106.781 6.816 107.717 7.7765L108.433 7.0784ZM104.713 4.6384L105.097 3.71481C103.551 3.07296 101.872 2.7584 100.073 2.7584V3.7584V4.7584C101.635 4.7584 103.05 5.0305 104.33 5.56199L104.713 4.6384ZM100.073 3.7584V2.7584C98.2746 2.7584 96.5853 3.07302 95.0161 3.7123L95.3934 4.6384L95.7707 5.56449C97.0816 5.03044 98.5123 4.7584 100.073 4.7584V3.7584ZM95.3934 4.6384L95.031 3.70639C93.465 4.3154 92.0935 5.20416 90.9263 6.37129L91.6334 7.0784L92.3405 7.7855C93.3067 6.8193 94.4419 6.08139 95.7559 5.5704L95.3934 4.6384ZM91.6334 7.0784L90.9263 6.37129C89.7933 7.50436 88.897 8.83723 88.2361 10.3603L89.1534 10.7584L90.0708 11.1565C90.6365 9.8529 91.3936 8.73244 92.3405 7.7855L91.6334 7.0784ZM89.1534 10.7584L88.2325 10.3688C87.5879 11.8922 87.2734 13.5601 87.2734 15.3584H88.2734H89.2734C89.2734 13.7967 89.5456 12.3979 90.0744 11.148L89.1534 10.7584ZM88.2734 15.3584H87.2734C87.2734 17.1326 87.5888 18.7974 88.2298 20.3418L89.1534 19.9584L90.077 19.575C89.5447 18.2927 89.2734 16.8908 89.2734 15.3584H88.2734ZM89.1534 19.9584L88.2361 20.3565C88.8961 21.8774 89.7898 23.2199 90.9174 24.3765L91.6334 23.6784L92.3494 22.9803C91.3971 22.0035 90.6375 20.8661 90.0708 19.5603L89.1534 19.9584ZM91.6334 23.6784L90.9353 24.3944C92.0984 25.5284 93.462 26.4113 95.0161 27.0445L95.3934 26.1184L95.7707 25.1923C94.4449 24.6522 93.3018 23.9084 92.3315 22.9624L91.6334 23.6784ZM95.3934 26.1184L95.031 27.0504C96.5963 27.6591 98.2803 27.9584 100.073 27.9584V26.9584V25.9584C98.5066 25.9584 97.0706 25.6977 95.7559 25.1864L95.3934 26.1184ZM127.708 28.5584L127.334 29.486L127.346 29.4907L127.708 28.5584ZM123.068 25.5584L122.368 26.2728L122.368 26.2728L123.068 25.5584ZM119.988 21.0384L119.065 21.422L119.07 21.434L119.988 21.0384ZM119.988 9.6784L119.07 9.28274L119.065 9.29479L119.988 9.6784ZM123.068 5.1584L122.376 4.43697L122.368 4.44404L123.068 5.1584ZM127.748 2.1984L128.11 3.13074L128.122 3.12592L127.748 2.1984ZM139.308 2.1584L138.946 3.09074L138.959 3.0953L139.308 2.1584ZM143.828 5.1984L144.535 5.9055L145.207 5.23391L144.571 4.52863L143.828 5.1984ZM141.948 7.0784L141.233 7.77733L141.94 8.50078L142.655 7.7855L141.948 7.0784ZM138.148 4.5584L137.789 5.49174L137.797 5.49477L137.805 5.49766L138.148 4.5584ZM128.988 4.6384L129.351 5.5704L129.358 5.5675L129.365 5.56449L128.988 4.6384ZM125.228 7.0784L125.926 7.79445L125.935 7.7855L125.228 7.0784ZM122.708 10.7584L121.791 10.3603L121.787 10.3688L122.708 10.7584ZM122.708 19.9984L121.785 20.3818L121.789 20.3924L121.794 20.4029L122.708 19.9984ZM125.228 23.6784L124.521 24.3856L124.53 24.3944L125.228 23.6784ZM128.988 26.1184L128.611 27.0445L128.618 27.0475L128.626 27.0504L128.988 26.1184ZM138.148 26.1584L138.507 27.0917L138.507 27.0917L138.148 26.1584ZM141.948 23.5984L142.655 22.8913L141.94 22.176L141.233 22.8995L141.948 23.5984ZM143.828 25.4784L144.571 26.1482L145.207 25.4429L144.535 24.7713L143.828 25.4784ZM139.308 28.5584L139.67 29.4907L139.67 29.4907L139.308 28.5584ZM133.548 29.5984V28.5984C131.553 28.5984 129.73 28.2705 128.07 27.6261L127.708 28.5584L127.346 29.4907C129.259 30.233 131.33 30.5984 133.548 30.5984V29.5984ZM127.708 28.5584L128.082 27.6309C126.41 26.9572 124.976 26.0275 123.768 24.844L123.068 25.5584L122.368 26.2728C123.774 27.6493 125.433 28.7196 127.334 29.4859L127.708 28.5584ZM123.068 25.5584L123.768 24.844C122.557 23.658 121.603 22.2605 120.907 20.6428L119.988 21.0384L119.07 21.434C119.866 23.2829 120.966 24.8988 122.368 26.2728L123.068 25.5584ZM119.988 21.0384L120.912 20.6548C120.247 19.054 119.908 17.2925 119.908 15.3584H118.908H117.908C117.908 17.5309 118.29 19.5561 119.065 21.422L119.988 21.0384ZM118.908 15.3584H119.908C119.908 13.4243 120.247 11.6628 120.912 10.062L119.988 9.6784L119.065 9.29479C118.29 11.1607 117.908 13.1858 117.908 15.3584H118.908ZM119.988 9.6784L120.907 10.074C121.603 8.45626 122.557 7.05883 123.768 5.87276L123.068 5.1584L122.368 4.44404C120.966 5.81796 119.866 7.43387 119.07 9.28277L119.988 9.6784ZM123.068 5.1584L123.761 5.87978C124.995 4.6946 126.442 3.77803 128.11 3.13066L127.748 2.1984L127.386 1.26613C125.481 2.00543 123.808 3.06219 122.376 4.43701L123.068 5.1584ZM127.748 2.1984L128.122 3.12592C129.779 2.4581 131.598 2.1184 133.588 2.1184V1.1184V0.118397C131.365 0.118397 129.29 0.498699 127.374 1.27088L127.748 2.1984ZM133.588 1.1184V2.1184C135.498 2.1184 137.282 2.44463 138.946 3.09066L139.308 2.1584L139.67 1.22613C137.761 0.4855 135.731 0.118397 133.588 0.118397V1.1184ZM139.308 2.1584L138.959 3.0953C140.601 3.70818 141.971 4.63248 143.086 5.86817L143.828 5.1984L144.571 4.52863C143.232 3.04432 141.589 1.94194 139.658 1.2215L139.308 2.1584ZM143.828 5.1984L143.121 4.49129L141.241 6.37129L141.948 7.0784L142.655 7.7855L144.535 5.9055L143.828 5.1984ZM141.948 7.0784L142.663 6.37946C141.424 5.11123 140.033 4.18257 138.491 3.61913L138.148 4.5584L137.805 5.49766C139.036 5.94756 140.179 6.69889 141.233 7.77733L141.948 7.0784ZM138.148 4.5584L138.507 3.62505C136.997 3.04437 135.381 2.7584 133.668 2.7584V3.7584V4.7584C135.155 4.7584 136.526 5.00576 137.789 5.49174L138.148 4.5584ZM133.668 3.7584V2.7584C131.869 2.7584 130.18 3.07302 128.611 3.7123L128.988 4.6384L129.365 5.56449C130.676 5.03044 132.107 4.7584 133.668 4.7584V3.7584ZM128.988 4.6384L128.626 3.70639C127.06 4.3154 125.688 5.20416 124.521 6.37129L125.228 7.0784L125.935 7.7855C126.901 6.8193 128.037 6.08139 129.351 5.5704L128.988 4.6384ZM125.228 7.0784L124.53 6.3624C123.367 7.49623 122.454 8.83192 121.791 10.3603L122.708 10.7584L123.625 11.1565C124.189 9.85821 124.956 8.74057 125.926 7.7944L125.228 7.0784ZM122.708 10.7584L121.787 10.3688C121.143 11.8922 120.828 13.5601 120.828 15.3584H121.828H122.828C122.828 13.7967 123.1 12.3979 123.629 11.148L122.708 10.7584ZM121.828 15.3584H120.828C120.828 17.157 121.143 18.8355 121.785 20.3818L122.708 19.9984L123.632 19.615C123.1 18.3346 122.828 16.9198 122.828 15.3584H121.828ZM122.708 19.9984L121.794 20.4029C122.457 21.9018 123.367 23.2312 124.521 24.3855L125.228 23.6784L125.935 22.9713C124.956 21.9923 124.186 20.8684 123.623 19.5939L122.708 19.9984ZM125.228 23.6784L124.53 24.3944C125.693 25.5284 127.057 26.4113 128.611 27.0445L128.988 26.1184L129.365 25.1923C128.04 24.6522 126.896 23.9084 125.926 22.9624L125.228 23.6784ZM128.988 26.1184L128.626 27.0504C130.191 27.6591 131.875 27.9584 133.668 27.9584V26.9584V25.9584C132.101 25.9584 130.665 25.6977 129.351 25.1864L128.988 26.1184ZM133.668 26.9584V27.9584C135.381 27.9584 136.997 27.6724 138.507 27.0917L138.148 26.1584L137.789 25.2251C136.526 25.711 135.155 25.9584 133.668 25.9584V26.9584ZM138.148 26.1584L138.507 27.0917C140.041 26.5016 141.427 25.5627 142.663 24.2973L141.948 23.5984L141.233 22.8995C140.176 23.9808 139.028 24.7485 137.789 25.2251L138.148 26.1584ZM141.948 23.5984L141.241 24.3055L143.121 26.1855L143.828 25.4784L144.535 24.7713L142.655 22.8913L141.948 23.5984ZM143.828 25.4784L143.086 24.8086C141.968 26.0472 140.594 26.9866 138.946 27.6261L139.308 28.5584L139.67 29.4907C141.595 28.7435 143.234 27.6296 144.571 26.1482L143.828 25.4784ZM139.308 28.5584L138.946 27.6261C137.283 28.2716 135.487 28.5984 133.548 28.5984V29.5984V30.5984C135.716 30.5984 137.76 30.2319 139.67 29.4907L139.308 28.5584ZM155.912 28.5584L155.538 29.4859L155.547 29.4893L155.555 29.4925L155.912 28.5584ZM151.232 25.5584L150.525 26.2655L150.532 26.2727L150.54 26.2798L151.232 25.5584ZM148.152 21.0384L147.229 21.422L147.232 21.4306L147.236 21.4392L148.152 21.0384ZM148.152 9.7184L147.234 9.32276L147.231 9.3297L148.152 9.7184ZM151.232 5.1984L151.932 5.91276L151.932 5.91261L151.232 5.1984ZM155.912 2.1984L156.274 3.13074L156.286 3.12592L155.912 2.1984ZM167.632 2.1984L167.258 3.12599L167.27 3.13066L167.632 2.1984ZM172.272 5.1584L171.572 5.87279L171.58 5.87979L172.272 5.1584ZM175.352 9.6784L174.429 10.062L174.434 10.074L175.352 9.6784ZM175.352 21.0384L174.434 20.6427L174.429 20.6548L175.352 21.0384ZM172.272 25.5584L171.58 24.837L171.572 24.844L172.272 25.5584ZM167.632 28.5584L167.994 29.4907L168.006 29.4859L167.632 28.5584ZM166.432 26.1184L166.801 27.0481L166.809 27.0445L166.432 26.1184ZM170.152 23.6784L169.445 22.9713L169.445 22.9713L170.152 23.6784ZM172.632 19.9984L173.553 20.388L173.556 20.3818L172.632 19.9984ZM172.632 10.7584L171.709 11.1418L171.711 11.148L172.632 10.7584ZM170.152 7.0784L169.436 7.7765L169.445 7.78556L169.454 7.7944L170.152 7.0784ZM166.432 4.6384L166.049 5.56199L166.059 5.56631L166.07 5.5704L166.432 4.6384ZM157.112 4.6384L157.475 5.5704L157.482 5.5675L157.489 5.56449L157.112 4.6384ZM153.352 7.0784L152.645 6.37129L152.645 6.37129L153.352 7.0784ZM150.872 10.7584L149.955 10.3603L149.951 10.3688L150.872 10.7584ZM150.872 19.9584L149.949 20.3418L149.952 20.3492L149.955 20.3565L150.872 19.9584ZM153.352 23.6784L152.636 24.3765L152.645 24.3856L152.654 24.3944L153.352 23.6784ZM157.112 26.1184L156.735 27.0445L156.742 27.0475L156.75 27.0504L157.112 26.1184ZM161.792 29.5984V28.5984C159.797 28.5984 157.959 28.2705 156.269 27.6243L155.912 28.5584L155.555 29.4925C157.492 30.233 159.574 30.5984 161.792 30.5984V29.5984ZM155.912 28.5584L156.286 27.6309C154.613 26.9566 153.162 26.0249 151.925 24.837L151.232 25.5584L150.54 26.2798C151.969 27.6519 153.638 28.7202 155.538 29.4859L155.912 28.5584ZM151.232 25.5584L151.939 24.8513C150.722 23.6335 149.765 22.231 149.068 20.6376L148.152 21.0384L147.236 21.4392C148.032 23.2592 149.13 24.8699 150.525 26.2655L151.232 25.5584ZM148.152 21.0384L149.076 20.6548C148.411 19.054 148.072 17.2925 148.072 15.3584H147.072H146.072C146.072 17.5309 146.454 19.5561 147.229 21.422L148.152 21.0384ZM147.072 15.3584H148.072C148.072 13.4241 148.411 11.678 149.074 10.1071L148.152 9.7184L147.231 9.3297C146.454 11.1721 146.072 13.1861 146.072 15.3584H147.072ZM148.152 9.7184L149.071 10.114C149.767 8.49626 150.721 7.09883 151.932 5.91276L151.232 5.1984L150.532 4.48404C149.13 5.85796 148.03 7.47387 147.234 9.32277L148.152 9.7184ZM151.232 5.1984L151.932 5.91261C153.166 4.70334 154.61 3.77631 156.274 3.13066L155.912 2.1984L155.55 1.26613C153.641 2.00715 151.965 3.08012 150.532 4.48418L151.232 5.1984ZM155.912 2.1984L156.286 3.12592C157.942 2.45868 159.773 2.1184 161.792 2.1184V1.1184V0.118397C159.545 0.118397 157.456 0.498111 155.538 1.27088L155.912 2.1984ZM161.792 1.1184V2.1184C163.783 2.1184 165.601 2.4581 167.258 3.12592L167.632 2.1984L168.006 1.27088C166.09 0.498699 164.015 0.118397 161.792 0.118397V1.1184ZM167.632 2.1984L167.27 3.13066C168.937 3.77738 170.367 4.69204 171.572 5.87276L172.272 5.1584L172.972 4.44404C171.564 3.06476 169.901 2.00608 167.994 1.26613L167.632 2.1984ZM172.272 5.1584L171.58 5.87979C172.812 7.0628 173.761 8.45395 174.429 10.062L175.352 9.6784L176.276 9.29479C175.504 7.43618 174.399 5.81399 172.965 4.43701L172.272 5.1584ZM175.352 9.6784L174.434 10.074C175.122 11.6718 175.472 13.429 175.472 15.3584H176.472H177.472C177.472 13.1811 177.076 11.1517 176.271 9.28277L175.352 9.6784ZM176.472 15.3584H175.472C175.472 17.2878 175.122 19.045 174.434 20.6428L175.352 21.0384L176.271 21.434C177.076 19.5651 177.472 17.5357 177.472 15.3584H176.472ZM175.352 21.0384L174.429 20.6548C173.761 22.2628 172.812 23.654 171.58 24.837L172.272 25.5584L172.965 26.2798C174.399 24.9028 175.504 23.2806 176.276 21.422L175.352 21.0384ZM172.272 25.5584L171.572 24.844C170.364 26.0275 168.93 26.9572 167.258 27.6309L167.632 28.5584L168.006 29.4859C169.908 28.7196 171.567 27.6493 172.972 26.2728L172.272 25.5584ZM167.632 28.5584L167.27 27.6261C165.61 28.2705 163.787 28.5984 161.792 28.5984V29.5984V30.5984C164.01 30.5984 166.081 30.233 167.994 29.4907L167.632 28.5584ZM161.792 26.9584V27.9584C163.585 27.9584 165.258 27.6592 166.801 27.0481L166.432 26.1184L166.064 25.1887C164.779 25.6976 163.359 25.9584 161.792 25.9584V26.9584ZM166.432 26.1184L166.809 27.0445C168.366 26.4105 169.72 25.5251 170.859 24.3855L170.152 23.6784L169.445 22.9713C168.505 23.9117 167.379 24.653 166.055 25.1923L166.432 26.1184ZM170.152 23.6784L170.859 24.3855C172.017 23.228 172.916 21.8935 173.553 20.388L172.632 19.9984L171.711 19.6088C171.175 20.8766 170.421 21.9955 169.445 22.9713L170.152 23.6784ZM172.632 19.9984L173.556 20.3818C174.198 18.8355 174.512 17.157 174.512 15.3584H173.512H172.512C172.512 16.9198 172.24 18.3346 171.709 19.615L172.632 19.9984ZM173.512 15.3584H174.512C174.512 13.5601 174.198 11.8922 173.553 10.3688L172.632 10.7584L171.711 11.148C172.24 12.3979 172.512 13.7967 172.512 15.3584H173.512ZM172.632 10.7584L173.556 10.375C172.919 8.84018 172.017 7.49947 170.85 6.3624L170.152 7.0784L169.454 7.7944C170.421 8.73733 171.172 9.84995 171.709 11.1418L172.632 10.7584ZM170.152 7.0784L170.868 6.3803C169.725 5.20747 168.363 4.31623 166.795 3.70639L166.432 4.6384L166.07 5.5704C167.382 6.08057 168.5 6.816 169.436 7.7765L170.152 7.0784ZM166.432 4.6384L166.816 3.71481C165.269 3.07296 163.591 2.7584 161.792 2.7584V3.7584V4.7584C163.354 4.7584 164.768 5.0305 166.049 5.56199L166.432 4.6384ZM161.792 3.7584V2.7584C159.993 2.7584 158.304 3.07302 156.735 3.7123L157.112 4.6384L157.489 5.56449C158.8 5.03044 160.231 4.7584 161.792 4.7584V3.7584ZM157.112 4.6384L156.75 3.70639C155.184 4.3154 153.812 5.20416 152.645 6.37129L153.352 7.0784L154.059 7.7855C155.025 6.8193 156.161 6.08139 157.475 5.5704L157.112 4.6384ZM153.352 7.0784L152.645 6.37129C151.512 7.50436 150.616 8.83723 149.955 10.3603L150.872 10.7584L151.79 11.1565C152.355 9.8529 153.112 8.73244 154.059 7.7855L153.352 7.0784ZM150.872 10.7584L149.951 10.3688C149.307 11.8922 148.992 13.5601 148.992 15.3584H149.992H150.992C150.992 13.7967 151.264 12.3979 151.793 11.148L150.872 10.7584ZM149.992 15.3584H148.992C148.992 17.1326 149.308 18.7974 149.949 20.3418L150.872 19.9584L151.796 19.575C151.263 18.2927 150.992 16.8908 150.992 15.3584H149.992ZM150.872 19.9584L149.955 20.3565C150.615 21.8774 151.509 23.2199 152.636 24.3765L153.352 23.6784L154.068 22.9803C153.116 22.0035 152.356 20.8661 151.79 19.5603L150.872 19.9584ZM153.352 23.6784L152.654 24.3944C153.817 25.5284 155.181 26.4113 156.735 27.0445L157.112 26.1184L157.489 25.1923C156.164 24.6522 155.021 23.9084 154.05 22.9624L153.352 23.6784ZM157.112 26.1184L156.75 27.0504C158.315 27.6591 159.999 27.9584 161.792 27.9584V26.9584V25.9584C160.225 25.9584 158.789 25.6977 157.475 25.1864L157.112 26.1184ZM183.107 29.3584H182.107V30.3584H183.107V29.3584ZM183.107 1.3584V0.358397H182.107V1.3584H183.107ZM202.347 3.1584L201.875 4.03988L201.881 4.04322L201.887 4.04647L202.347 3.1584ZM207.627 8.0784L208.486 7.56711L208.486 7.56711L207.627 8.0784ZM207.627 22.6384L208.486 23.1497L208.486 23.1497L207.627 22.6384ZM202.347 27.5984L202.811 28.4842L202.815 28.4822L202.347 27.5984ZM186.067 26.7984H185.067V27.7984H186.067V26.7984ZM200.787 25.3584L201.255 26.2422L201.259 26.2397L200.787 25.3584ZM205.067 21.3184L205.927 21.8289L205.93 21.8231L205.067 21.3184ZM205.067 9.3984L205.927 8.88786L205.927 8.88786L205.067 9.3984ZM200.787 5.3984L200.309 6.27679L200.317 6.28095L200.324 6.28498L200.787 5.3984ZM186.067 3.9184V2.9184H185.067V3.9184H186.067ZM183.107 29.3584H184.107V1.3584H183.107H182.107V29.3584H183.107ZM183.107 1.3584V2.3584H194.507V1.3584V0.358397H183.107V1.3584ZM194.507 1.3584V2.3584C197.358 2.3584 199.803 2.93028 201.875 4.03988L202.347 3.1584L202.819 2.27692C200.41 0.986511 197.629 0.358397 194.507 0.358397V1.3584ZM202.347 3.1584L201.887 4.04647C203.995 5.13769 205.614 6.65027 206.767 8.58969L207.627 8.0784L208.486 7.56711C207.133 5.29319 205.232 3.52577 202.807 2.27033L202.347 3.1584ZM207.627 8.0784L206.767 8.58969C207.918 10.5236 208.507 12.7695 208.507 15.3584H209.507H210.507C210.507 12.454 209.842 9.84648 208.486 7.56711L207.627 8.0784ZM209.507 15.3584H208.507C208.507 17.9473 207.918 20.1932 206.767 22.1271L207.627 22.6384L208.486 23.1497C209.842 20.8703 210.507 18.2628 210.507 15.3584H209.507ZM207.627 22.6384L206.767 22.1271C205.612 24.0686 203.991 25.5963 201.879 26.7146L202.347 27.5984L202.815 28.4822C205.236 27.2005 207.135 25.4216 208.486 23.1497L207.627 22.6384ZM202.347 27.5984L201.883 26.7126C199.81 27.7984 197.361 28.3584 194.507 28.3584V29.3584V30.3584C197.626 30.3584 200.404 29.745 202.811 28.4842L202.347 27.5984ZM194.507 29.3584V28.3584H183.107V29.3584V30.3584H194.507V29.3584ZM186.067 26.7984V27.7984H194.347V26.7984V25.7984H186.067V26.7984ZM194.347 26.7984V27.7984C196.956 27.7984 199.27 27.2929 201.255 26.2422L200.787 25.3584L200.319 24.4746C198.677 25.3439 196.698 25.7984 194.347 25.7984V26.7984ZM200.787 25.3584L201.259 26.2397C203.251 25.1717 204.816 23.7004 205.927 21.8289L205.067 21.3184L204.207 20.8079C203.292 22.3497 202.003 23.5718 200.314 24.4771L200.787 25.3584ZM205.067 21.3184L205.93 21.8231C207.043 19.9195 207.587 17.7548 207.587 15.3584H206.587H205.587C205.587 17.442 205.117 19.2507 204.204 20.8137L205.067 21.3184ZM206.587 15.3584H207.587C207.587 12.938 207.044 10.7699 205.927 8.88786L205.067 9.3984L204.207 9.90894C205.116 11.4402 205.587 13.2454 205.587 15.3584H206.587ZM205.067 9.3984L205.927 8.88786C204.814 7.01388 203.246 5.55369 201.249 4.51181L200.787 5.3984L200.324 6.28498C202.007 7.16311 203.293 8.36958 204.207 9.90894L205.067 9.3984ZM200.787 5.3984L201.265 4.52001C199.278 3.43894 196.96 2.9184 194.347 2.9184V3.9184V4.9184C196.693 4.9184 198.669 5.38452 200.309 6.27679L200.787 5.3984ZM194.347 3.9184V2.9184H186.067V3.9184V4.9184H194.347V3.9184ZM186.067 3.9184H185.067V26.7984H186.067H187.067V3.9184H186.067ZM218.794 13.8784V12.8784H217.794V13.8784H218.794ZM233.594 13.8784H234.594V12.8784H233.594V13.8784ZM233.594 16.3984V17.3984H234.594V16.3984H233.594ZM218.794 16.3984H217.794V17.3984H218.794V16.3984ZM219.114 26.7984H218.114V27.7984H219.114V26.7984ZM235.954 26.7984H236.954V25.7984H235.954V26.7984ZM235.954 29.3584V30.3584H236.954V29.3584H235.954ZM216.154 29.3584H215.154V30.3584H216.154V29.3584ZM216.154 1.3584V0.358397H215.154V1.3584H216.154ZM235.354 1.3584H236.354V0.358397H235.354V1.3584ZM235.354 3.9184V4.9184H236.354V3.9184H235.354ZM219.114 3.9184V2.9184H218.114V3.9184H219.114ZM218.794 13.8784V14.8784H233.594V13.8784V12.8784H218.794V13.8784ZM233.594 13.8784H232.594V16.3984H233.594H234.594V13.8784H233.594ZM233.594 16.3984V15.3984H218.794V16.3984V17.3984H233.594V16.3984ZM218.794 16.3984H219.794V13.8784H218.794H217.794V16.3984H218.794ZM219.114 26.7984V27.7984H235.954V26.7984V25.7984H219.114V26.7984ZM235.954 26.7984H234.954V29.3584H235.954H236.954V26.7984H235.954ZM235.954 29.3584V28.3584H216.154V29.3584V30.3584H235.954V29.3584ZM216.154 29.3584H217.154V1.3584H216.154H215.154V29.3584H216.154ZM216.154 1.3584V2.3584H235.354V1.3584V0.358397H216.154V1.3584ZM235.354 1.3584H234.354V3.9184H235.354H236.354V1.3584H235.354ZM235.354 3.9184V2.9184H219.114V3.9184V4.9184H235.354V3.9184ZM219.114 3.9184H218.114V26.7984H219.114H220.114V3.9184H219.114ZM242.912 29.3584H241.912V30.3584H242.912V29.3584ZM242.912 1.3584V0.358397H241.912V1.3584H242.912ZM259.512 2.5184L259.099 3.42933L259.111 3.43456L259.512 2.5184ZM263.432 5.7984L262.585 6.33121L262.591 6.3404L262.597 6.34946L263.432 5.7984ZM263.432 16.0784L262.592 15.5345L262.59 15.5384L263.432 16.0784ZM259.512 19.3584L259.912 20.2746L259.924 20.2693L259.512 19.3584ZM244.552 20.4784L243.834 19.7819L242.187 21.4784H244.552V20.4784ZM245.872 19.1184H246.872V16.6523L245.154 18.4219L245.872 19.1184ZM245.872 29.3584V30.3584H246.872V29.3584H245.872ZM262.032 29.3584L261.216 29.9366L261.515 30.3584H262.032V29.3584ZM254.832 19.1984V18.1984H252.897L254.016 19.7766L254.832 19.1984ZM258.032 19.1984L258.846 18.6181L258.547 18.1984H258.032V19.1984ZM265.272 29.3584V30.3584H267.212L266.086 28.7781L265.272 29.3584ZM245.872 19.3584L245.144 20.0444L246.872 21.8767V19.3584H245.872ZM244.552 17.9584V16.9584H242.234L243.824 18.6444L244.552 17.9584ZM259.672 16.1184L259.03 15.3513L259.023 15.3572L259.672 16.1184ZM259.672 5.7584L259.023 6.51967L259.03 6.52547L259.672 5.7584ZM244.552 3.9184L243.824 3.23238L242.234 4.9184H244.552V3.9184ZM245.872 2.5184H246.872V9.5773e-05L245.144 1.83238L245.872 2.5184ZM242.912 29.3584H243.912V1.3584H242.912H241.912V29.3584H242.912ZM242.912 1.3584V2.3584H253.392V1.3584V0.358397H242.912V1.3584ZM253.392 1.3584V2.3584C255.659 2.3584 257.552 2.72813 259.099 3.42925L259.512 2.5184L259.924 1.60755C258.058 0.761997 255.871 0.358397 253.392 0.358397V1.3584ZM259.512 2.5184L259.111 3.43456C260.652 4.10888 261.795 5.07676 262.585 6.33121L263.432 5.7984L264.278 5.26558C263.254 3.64004 261.784 2.42125 259.912 1.60224L259.512 2.5184ZM263.432 5.7984L262.597 6.34946C263.403 7.56946 263.832 9.08858 263.832 10.9584H264.832H265.832C265.832 8.77488 265.327 6.854 264.266 5.24734L263.432 5.7984ZM264.832 10.9584H263.832C263.832 12.7684 263.406 14.2797 262.592 15.5345L263.432 16.0784L264.271 16.6223C265.324 14.9971 265.832 13.0951 265.832 10.9584H264.832ZM263.432 16.0784L262.59 15.5384C261.799 16.7709 260.651 17.7443 259.099 18.4475L259.512 19.3584L259.924 20.2693C261.786 19.4258 263.251 18.2125 264.273 16.6184L263.432 16.0784ZM259.512 19.3584L259.111 18.4422C257.56 19.1207 255.663 19.4784 253.392 19.4784V20.4784V21.4784C255.866 21.4784 258.05 21.0894 259.912 20.2746L259.512 19.3584ZM253.392 20.4784V19.4784H244.552V20.4784V21.4784H253.392V20.4784ZM244.552 20.4784L245.269 21.1749L246.589 19.8149L245.872 19.1184L245.154 18.4219L243.834 19.7819L244.552 20.4784ZM245.872 19.1184H244.872V29.3584H245.872H246.872V19.1184H245.872ZM245.872 29.3584V28.3584H242.912V29.3584V30.3584H245.872V29.3584ZM262.032 29.3584L262.847 28.7802L255.647 18.6202L254.832 19.1984L254.016 19.7766L261.216 29.9366L262.032 29.3584ZM254.832 19.1984V20.1984H258.032V19.1984V18.1984H254.832V19.1984ZM258.032 19.1984L257.217 19.7787L264.457 29.9387L265.272 29.3584L266.086 28.7781L258.846 18.6181L258.032 19.1984ZM265.272 29.3584V28.3584H262.032V29.3584V30.3584H265.272V29.3584ZM245.872 19.3584L246.599 18.6724L245.279 17.2724L244.552 17.9584L243.824 18.6444L245.144 20.0444L245.872 19.3584ZM244.552 17.9584V18.9584H253.312V17.9584V16.9584H244.552V17.9584ZM253.312 17.9584V18.9584C256.238 18.9584 258.63 18.3196 260.32 16.8796L259.672 16.1184L259.023 15.3572C257.833 16.3705 255.985 16.9584 253.312 16.9584V17.9584ZM259.672 16.1184L260.313 16.8855C262.044 15.4378 262.872 13.4159 262.872 10.9584H261.872H260.872C260.872 12.9276 260.232 14.3457 259.03 15.3513L259.672 16.1184ZM261.872 10.9584H262.872C262.872 8.47867 262.047 6.44144 260.313 4.99132L259.672 5.7584L259.03 6.52547C260.23 7.52869 260.872 8.95812 260.872 10.9584H261.872ZM259.672 5.7584L260.32 4.99715C258.63 3.55719 256.238 2.9184 253.312 2.9184V3.9184V4.9184C255.985 4.9184 257.833 5.50627 259.023 6.51964L259.672 5.7584ZM253.312 3.9184V2.9184H244.552V3.9184V4.9184H253.312V3.9184ZM244.552 3.9184L245.279 4.60441L246.599 3.20441L245.872 2.5184L245.144 1.83238L243.824 3.23238L244.552 3.9184ZM245.872 2.5184H244.872V19.3584H245.872H246.872V2.5184H245.872Z" fill="white" mask="url(#path-1-outside-1_618_3)"/>
</svg>
