<svg width="337" height="41" viewBox="0 0 337 41" fill="none" xmlns="http://www.w3.org/2000/svg">
<mask id="path-1-outside-1_618_3" maskUnits="userSpaceOnUse" x="-0.986328" y="-0.41333" width="338" height="42" fill="black">
<rect fill="white" x="-0.986328" y="-0.41333" width="338" height="42"/>
<path d="M3.11367 38.5867L19.1137 3.58667H22.7637L38.7637 38.5867H34.8637L20.1637 5.73667H21.6637L6.96367 38.5867H3.11367ZM9.41367 29.2367L10.5137 26.2367H30.8637L31.9637 29.2367H9.41367ZM57.9211 38.8867C53.4544 38.8867 49.9378 37.6033 47.3711 35.0367C44.8044 32.47 43.5211 28.67 43.5211 23.6367V3.58667H47.2211V23.4867C47.2211 27.62 48.1544 30.67 50.0211 32.6367C51.8878 34.6033 54.5211 35.5867 57.9211 35.5867C61.3544 35.5867 64.0044 34.6033 65.8711 32.6367C67.7378 30.67 68.6711 27.62 68.6711 23.4867V3.58667H72.2711V23.6367C72.2711 28.67 70.9878 32.47 68.4211 35.0367C65.8878 37.6033 62.3878 38.8867 57.9211 38.8867ZM89.5371 38.5867V6.78667H77.2371V3.58667H105.537V6.78667H93.2371V38.5867H89.5371ZM126.26 38.8867C123.626 38.8867 121.176 38.4533 118.91 37.5867C116.676 36.6867 114.726 35.4367 113.06 33.8367C111.426 32.2033 110.143 30.32 109.21 28.1867C108.31 26.02 107.86 23.6533 107.86 21.0867C107.86 18.52 108.31 16.17 109.21 14.0367C110.143 11.87 111.426 9.98667 113.06 8.38667C114.726 6.75333 116.676 5.50333 118.91 4.63667C121.143 3.73667 123.593 3.28667 126.26 3.28667C128.893 3.28667 131.326 3.73667 133.56 4.63667C135.793 5.50333 137.726 6.73667 139.36 8.33667C141.026 9.93667 142.31 11.82 143.21 13.9867C144.143 16.1533 144.61 18.52 144.61 21.0867C144.61 23.6533 144.143 26.02 143.21 28.1867C142.31 30.3533 141.026 32.2367 139.36 33.8367C137.726 35.4367 135.793 36.6867 133.56 37.5867C131.326 38.4533 128.893 38.8867 126.26 38.8867ZM126.26 35.5867C128.36 35.5867 130.293 35.2367 132.06 34.5367C133.86 33.8033 135.41 32.7867 136.71 31.4867C138.043 30.1533 139.076 28.62 139.81 26.8867C140.543 25.12 140.91 23.1867 140.91 21.0867C140.91 18.9867 140.543 17.07 139.81 15.3367C139.076 13.57 138.043 12.0367 136.71 10.7367C135.41 9.40334 133.86 8.38667 132.06 7.68667C130.293 6.95333 128.36 6.58667 126.26 6.58667C124.16 6.58667 122.21 6.95333 120.41 7.68667C118.61 8.38667 117.043 9.40334 115.71 10.7367C114.41 12.0367 113.376 13.57 112.61 15.3367C111.876 17.07 111.51 18.9867 111.51 21.0867C111.51 23.1533 111.876 25.07 112.61 26.8367C113.376 28.6033 114.41 30.1533 115.71 31.4867C117.043 32.7867 118.61 33.8033 120.41 34.5367C122.21 35.2367 124.16 35.5867 126.26 35.5867ZM168.103 38.8867C165.47 38.8867 163.036 38.4533 160.803 37.5867C158.57 36.6867 156.636 35.4367 155.003 33.8367C153.37 32.2367 152.086 30.3533 151.153 28.1867C150.253 26.02 149.803 23.6533 149.803 21.0867C149.803 18.52 150.253 16.1533 151.153 13.9867C152.086 11.82 153.37 9.93667 155.003 8.33667C156.67 6.73667 158.62 5.50333 160.853 4.63667C163.086 3.73667 165.52 3.28667 168.153 3.28667C170.686 3.28667 173.07 3.72 175.303 4.58667C177.536 5.42 179.42 6.68667 180.953 8.38667L178.603 10.7367C177.17 9.27 175.586 8.22 173.853 7.58667C172.12 6.92 170.253 6.58667 168.253 6.58667C166.153 6.58667 164.203 6.95333 162.403 7.68667C160.603 8.38667 159.036 9.40334 157.703 10.7367C156.37 12.0367 155.32 13.57 154.553 15.3367C153.82 17.07 153.453 18.9867 153.453 21.0867C153.453 23.1867 153.82 25.12 154.553 26.8867C155.32 28.62 156.37 30.1533 157.703 31.4867C159.036 32.7867 160.603 33.8033 162.403 34.5367C164.203 35.2367 166.153 35.5867 168.253 35.5867C170.253 35.5867 172.12 35.2533 173.853 34.5867C175.586 33.92 177.17 32.8533 178.603 31.3867L180.953 33.7367C179.42 35.4367 177.536 36.72 175.303 37.5867C173.07 38.4533 170.67 38.8867 168.103 38.8867ZM203.408 38.8867C200.775 38.8867 198.325 38.4533 196.058 37.5867C193.825 36.6867 191.875 35.4367 190.208 33.8367C188.575 32.2033 187.292 30.32 186.358 28.1867C185.458 26.02 185.008 23.6533 185.008 21.0867C185.008 18.52 185.458 16.17 186.358 14.0367C187.292 11.87 188.575 9.98667 190.208 8.38667C191.875 6.75333 193.825 5.50333 196.058 4.63667C198.292 3.73667 200.742 3.28667 203.408 3.28667C206.042 3.28667 208.475 3.73667 210.708 4.63667C212.942 5.50333 214.875 6.73667 216.508 8.33667C218.175 9.93667 219.458 11.82 220.358 13.9867C221.292 16.1533 221.758 18.52 221.758 21.0867C221.758 23.6533 221.292 26.02 220.358 28.1867C219.458 30.3533 218.175 32.2367 216.508 33.8367C214.875 35.4367 212.942 36.6867 210.708 37.5867C208.475 38.4533 206.042 38.8867 203.408 38.8867ZM203.408 35.5867C205.508 35.5867 207.442 35.2367 209.208 34.5367C211.008 33.8033 212.558 32.7867 213.858 31.4867C215.192 30.1533 216.225 28.62 216.958 26.8867C217.692 25.12 218.058 23.1867 218.058 21.0867C218.058 18.9867 217.692 17.07 216.958 15.3367C216.225 13.57 215.192 12.0367 213.858 10.7367C212.558 9.40334 211.008 8.38667 209.208 7.68667C207.442 6.95333 205.508 6.58667 203.408 6.58667C201.308 6.58667 199.358 6.95333 197.558 7.68667C195.758 8.38667 194.192 9.40334 192.858 10.7367C191.558 12.0367 190.525 13.57 189.758 15.3367C189.025 17.07 188.658 18.9867 188.658 21.0867C188.658 23.1533 189.025 25.07 189.758 26.8367C190.525 28.6033 191.558 30.1533 192.858 31.4867C194.192 32.7867 195.758 33.8033 197.558 34.5367C199.358 35.2367 201.308 35.5867 203.408 35.5867ZM230.052 38.5867V3.58667H244.302C248.035 3.58667 251.302 4.33667 254.102 5.83667C256.935 7.30334 259.135 9.35334 260.702 11.9867C262.268 14.62 263.052 17.6533 263.052 21.0867C263.052 24.52 262.268 27.5533 260.702 30.1867C259.135 32.82 256.935 34.8867 254.102 36.3867C251.302 37.8533 248.035 38.5867 244.302 38.5867H230.052ZM233.752 35.3867H244.102C247.202 35.3867 249.885 34.7867 252.152 33.5867C254.452 32.3533 256.235 30.67 257.502 28.5367C258.768 26.37 259.402 23.8867 259.402 21.0867C259.402 18.2533 258.768 15.77 257.502 13.6367C256.235 11.5033 254.452 9.83667 252.152 8.63667C249.885 7.40333 247.202 6.78667 244.102 6.78667H233.752V35.3867ZM274.66 19.2367H293.16V22.3867H274.66V19.2367ZM275.06 35.3867H296.11V38.5867H271.36V3.58667H295.36V6.78667H275.06V35.3867ZM304.807 38.5867V3.58667H317.907C320.874 3.58667 323.424 4.07 325.557 5.03667C327.691 5.97 329.324 7.33667 330.457 9.13667C331.624 10.9033 332.207 13.0533 332.207 15.5867C332.207 18.0533 331.624 20.1867 330.457 21.9867C329.324 23.7533 327.691 25.12 325.557 26.0867C323.424 27.02 320.874 27.4867 317.907 27.4867H306.857L308.507 25.7867V38.5867H304.807ZM328.707 38.5867L319.707 25.8867H323.707L332.757 38.5867H328.707ZM308.507 26.0867L306.857 24.3367H317.807C321.307 24.3367 323.957 23.57 325.757 22.0367C327.591 20.5033 328.507 18.3533 328.507 15.5867C328.507 12.7867 327.591 10.62 325.757 9.08667C323.957 7.55333 321.307 6.78667 317.807 6.78667H306.857L308.507 5.03667V26.0867Z"/>
</mask>
<path d="M3.11367 38.5867L1.29472 37.7552L0.000313985 40.5867H3.11367V38.5867ZM19.1137 3.58667V1.58667H17.8289L17.2947 2.75515L19.1137 3.58667ZM22.7637 3.58667L24.5826 2.75515L24.0485 1.58667H22.7637V3.58667ZM38.7637 38.5867V40.5867H41.877L40.5826 37.7552L38.7637 38.5867ZM34.8637 38.5867L33.0381 39.4036L33.5675 40.5867H34.8637V38.5867ZM20.1637 5.73667V3.73667H17.0776L18.3381 6.55358L20.1637 5.73667ZM21.6637 5.73667L23.4892 6.55358L24.7498 3.73667H21.6637V5.73667ZM6.96367 38.5867V40.5867H8.25981L8.78923 39.4036L6.96367 38.5867ZM9.41367 29.2367L7.53592 28.5482L6.55013 31.2367H9.41367V29.2367ZM10.5137 26.2367V24.2367H9.1168L8.63592 25.5482L10.5137 26.2367ZM30.8637 26.2367L32.7414 25.5482L32.2605 24.2367H30.8637V26.2367ZM31.9637 29.2367V31.2367H34.8272L33.8414 28.5482L31.9637 29.2367ZM3.11367 38.5867L4.93262 39.4182L20.9326 4.41819L19.1137 3.58667L17.2947 2.75515L1.29472 37.7552L3.11367 38.5867ZM19.1137 3.58667V5.58667H22.7637V3.58667V1.58667H19.1137V3.58667ZM22.7637 3.58667L20.9447 4.41819L36.9447 39.4182L38.7637 38.5867L40.5826 37.7552L24.5826 2.75515L22.7637 3.58667ZM38.7637 38.5867V36.5867H34.8637V38.5867V40.5867H38.7637V38.5867ZM34.8637 38.5867L36.6892 37.7698L21.9892 4.91975L20.1637 5.73667L18.3381 6.55358L33.0381 39.4036L34.8637 38.5867ZM20.1637 5.73667V7.73667H21.6637V5.73667V3.73667H20.1637V5.73667ZM21.6637 5.73667L19.8381 4.91975L5.13812 37.7698L6.96367 38.5867L8.78923 39.4036L23.4892 6.55358L21.6637 5.73667ZM6.96367 38.5867V36.5867H3.11367V38.5867V40.5867H6.96367V38.5867ZM9.41367 29.2367L11.2914 29.9252L12.3914 26.9252L10.5137 26.2367L8.63592 25.5482L7.53592 28.5482L9.41367 29.2367ZM10.5137 26.2367V28.2367H30.8637V26.2367V24.2367H10.5137V26.2367ZM30.8637 26.2367L28.9859 26.9252L30.0859 29.9252L31.9637 29.2367L33.8414 28.5482L32.7414 25.5482L30.8637 26.2367ZM31.9637 29.2367V27.2367H9.41367V29.2367V31.2367H31.9637V29.2367ZM47.3711 35.0367L45.9569 36.4509L45.9569 36.4509L47.3711 35.0367ZM43.5211 3.58667V1.58667H41.5211V3.58667H43.5211ZM47.2211 3.58667H49.2211V1.58667H47.2211V3.58667ZM68.6711 3.58667V1.58667H66.6711V3.58667H68.6711ZM72.2711 3.58667H74.2711V1.58667H72.2711V3.58667ZM68.4211 35.0367L67.0069 33.6224L66.9977 33.6317L68.4211 35.0367ZM57.9211 38.8867V36.8867C53.855 36.8867 50.8941 35.7313 48.7853 33.6225L47.3711 35.0367L45.9569 36.4509C48.9814 39.4754 53.0538 40.8867 57.9211 40.8867V38.8867ZM47.3711 35.0367L48.7853 33.6225C46.7193 31.5565 45.5211 28.3485 45.5211 23.6367H43.5211H41.5211C41.5211 28.9915 42.8895 33.3835 45.9569 36.4509L47.3711 35.0367ZM43.5211 23.6367H45.5211V3.58667H43.5211H41.5211V23.6367H43.5211ZM43.5211 3.58667V5.58667H47.2211V3.58667V1.58667H43.5211V3.58667ZM47.2211 3.58667H45.2211V23.4867H47.2211H49.2211V3.58667H47.2211ZM47.2211 23.4867H45.2211C45.2211 27.8706 46.2047 31.521 48.5705 34.0135L50.0211 32.6367L51.4717 31.2598C50.1041 29.819 49.2211 27.3694 49.2211 23.4867H47.2211ZM50.0211 32.6367L48.5705 34.0135C50.9059 36.4741 54.1208 37.5867 57.9211 37.5867V35.5867V33.5867C54.9214 33.5867 52.8696 32.7326 51.4717 31.2598L50.0211 32.6367ZM57.9211 35.5867V37.5867C61.7481 37.5867 64.9826 36.4779 67.3217 34.0135L65.8711 32.6367L64.4205 31.2598C63.0262 32.7288 60.9608 33.5867 57.9211 33.5867V35.5867ZM65.8711 32.6367L67.3217 34.0135C69.6874 31.521 70.6711 27.8706 70.6711 23.4867H68.6711H66.6711C66.6711 27.3694 65.7881 29.819 64.4205 31.2598L65.8711 32.6367ZM68.6711 23.4867H70.6711V3.58667H68.6711H66.6711V23.4867H68.6711ZM68.6711 3.58667V5.58667H72.2711V3.58667V1.58667H68.6711V3.58667ZM72.2711 3.58667H70.2711V23.6367H72.2711H74.2711V3.58667H72.2711ZM72.2711 23.6367H70.2711C70.2711 28.3485 69.0729 31.5565 67.0069 33.6225L68.4211 35.0367L69.8353 36.4509C72.9026 33.3835 74.2711 28.9915 74.2711 23.6367H72.2711ZM68.4211 35.0367L66.9977 33.6317C64.9257 35.731 61.9883 36.8867 57.9211 36.8867V38.8867V40.8867C62.7872 40.8867 66.8498 39.4757 69.8445 36.4416L68.4211 35.0367ZM89.5371 38.5867H87.5371V40.5867H89.5371V38.5867ZM89.5371 6.78667H91.5371V4.78667H89.5371V6.78667ZM77.2371 6.78667H75.2371V8.78667H77.2371V6.78667ZM77.2371 3.58667V1.58667H75.2371V3.58667H77.2371ZM105.537 3.58667H107.537V1.58667H105.537V3.58667ZM105.537 6.78667V8.78667H107.537V6.78667H105.537ZM93.2371 6.78667V4.78667H91.2371V6.78667H93.2371ZM93.2371 38.5867V40.5867H95.2371V38.5867H93.2371ZM89.5371 38.5867H91.5371V6.78667H89.5371H87.5371V38.5867H89.5371ZM89.5371 6.78667V4.78667H77.2371V6.78667V8.78667H89.5371V6.78667ZM77.2371 6.78667H79.2371V3.58667H77.2371H75.2371V6.78667H77.2371ZM77.2371 3.58667V5.58667H105.537V3.58667V1.58667H77.2371V3.58667ZM105.537 3.58667H103.537V6.78667H105.537H107.537V3.58667H105.537ZM105.537 6.78667V4.78667H93.2371V6.78667V8.78667H105.537V6.78667ZM93.2371 6.78667H91.2371V38.5867H93.2371H95.2371V6.78667H93.2371ZM93.2371 38.5867V36.5867H89.5371V38.5867V40.5867H93.2371V38.5867ZM118.91 37.5867L118.162 39.4417L118.179 39.4484L118.195 39.4548L118.91 37.5867ZM113.06 33.8367L111.646 35.2509L111.66 35.2653L111.675 35.2794L113.06 33.8367ZM109.21 28.1867L107.363 28.9539L107.37 28.9712L107.377 28.9883L109.21 28.1867ZM109.21 14.0367L107.373 13.2454L107.37 13.2523L107.367 13.2593L109.21 14.0367ZM113.06 8.38667L114.459 9.81539L114.46 9.81509L113.06 8.38667ZM118.91 4.63667L119.633 6.5012L119.645 6.49653L119.657 6.49171L118.91 4.63667ZM133.56 4.63667L132.812 6.49171L132.824 6.49653L132.836 6.5012L133.56 4.63667ZM139.36 8.33667L137.96 9.76539L137.967 9.77245L137.975 9.77944L139.36 8.33667ZM143.21 13.9867L141.363 14.7539L141.368 14.7659L141.373 14.7779L143.21 13.9867ZM143.21 28.1867L141.373 27.3954L141.368 27.4074L141.363 27.4195L143.21 28.1867ZM139.36 33.8367L137.975 32.3939L137.967 32.4009L137.96 32.408L139.36 33.8367ZM133.56 37.5867L134.283 39.4512L134.295 39.4465L134.307 39.4417L133.56 37.5867ZM132.06 34.5367L132.796 36.396L132.805 36.3925L132.814 36.3889L132.06 34.5367ZM136.71 31.4867L135.296 30.0725L135.296 30.0725L136.71 31.4867ZM139.81 26.8867L141.652 27.666L141.657 27.6534L139.81 26.8867ZM139.81 15.3367L137.963 16.1034L137.968 16.1159L139.81 15.3367ZM136.71 10.7367L135.278 12.1329L135.295 12.151L135.314 12.1687L136.71 10.7367ZM132.06 7.68667L131.293 9.53385L131.314 9.5425L131.335 9.55068L132.06 7.68667ZM120.41 7.68667L121.135 9.55068L121.15 9.54488L121.164 9.53885L120.41 7.68667ZM115.71 10.7367L114.296 9.32245L114.296 9.32245L115.71 10.7367ZM112.61 15.3367L110.775 14.5405L110.771 14.5489L110.768 14.5574L112.61 15.3367ZM112.61 26.8367L110.763 27.6034L110.769 27.6182L110.775 27.6329L112.61 26.8367ZM115.71 31.4867L114.278 32.8829L114.295 32.901L114.314 32.9187L115.71 31.4867ZM120.41 34.5367L119.655 36.3889L119.67 36.3949L119.685 36.4007L120.41 34.5367ZM126.26 38.8867V36.8867C123.85 36.8867 121.644 36.4909 119.624 35.7186L118.91 37.5867L118.195 39.4548C120.709 40.4158 123.403 40.8867 126.26 40.8867V38.8867ZM118.91 37.5867L119.657 35.7316C117.651 34.923 115.92 33.8096 114.445 32.3939L113.06 33.8367L111.675 35.2794C113.533 37.0637 115.702 38.4503 118.162 39.4417L118.91 37.5867ZM113.06 33.8367L114.474 32.4225C113.018 30.9669 111.876 29.2918 111.042 27.385L109.21 28.1867L107.377 28.9883C108.41 31.3482 109.834 33.4398 111.646 35.2509L113.06 33.8367ZM109.21 28.1867L111.057 27.4195C110.267 25.5179 109.86 23.4149 109.86 21.0867H107.86H105.86C105.86 23.8918 106.353 26.5221 107.363 28.9539L109.21 28.1867ZM107.86 21.0867H109.86C109.86 18.758 110.267 16.6759 111.052 14.8141L109.21 14.0367L107.367 13.2593C106.353 15.6641 105.86 18.282 105.86 21.0867H107.86ZM109.21 14.0367L111.047 14.8279C111.88 12.8924 113.018 11.2275 114.459 9.81539L113.06 8.38667L111.66 6.95795C109.835 8.7458 108.406 10.8476 107.373 13.2454L109.21 14.0367ZM113.06 8.38667L114.46 9.81509C115.928 8.37655 117.646 7.27249 119.633 6.5012L118.91 4.63667L118.186 2.77214C115.707 3.73418 113.525 5.13012 111.66 6.95824L113.06 8.38667ZM118.91 4.63667L119.657 6.49171C121.629 5.69724 123.822 5.28667 126.26 5.28667V3.28667V1.28667C123.364 1.28667 120.657 1.7761 118.162 2.78163L118.91 4.63667ZM126.26 3.28667V5.28667C128.661 5.28667 130.838 5.69606 132.812 6.49171L133.56 4.63667L134.307 2.78163C131.815 1.77727 129.125 1.28667 126.26 1.28667V3.28667ZM133.56 4.63667L132.836 6.5012C134.829 7.27464 136.53 8.36395 137.96 9.76539L139.36 8.33667L140.759 6.90795C138.923 5.10939 136.757 3.73203 134.283 2.77214L133.56 4.63667ZM139.36 8.33667L137.975 9.77944C139.439 11.1855 140.567 12.8378 141.363 14.7539L143.21 13.9867L145.057 13.2195C144.053 10.8022 142.614 8.68785 140.745 6.89389L139.36 8.33667ZM143.21 13.9867L141.373 14.7779C142.189 16.6734 142.61 18.768 142.61 21.0867H144.61H146.61C146.61 18.2721 146.097 15.6333 145.047 13.1954L143.21 13.9867ZM144.61 21.0867H142.61C142.61 23.4054 142.189 25.4999 141.373 27.3954L143.21 28.1867L145.047 28.9779C146.097 26.5401 146.61 23.9013 146.61 21.0867H144.61ZM143.21 28.1867L141.363 27.4195C140.567 29.3356 139.439 30.9879 137.975 32.3939L139.36 33.8367L140.745 35.2794C142.614 33.4855 144.053 31.3711 145.057 28.9539L143.21 28.1867ZM139.36 33.8367L137.96 32.408C136.524 33.8148 134.815 34.9243 132.812 35.7316L133.56 37.5867L134.307 39.4417C136.771 38.449 138.929 37.0585 140.759 35.2654L139.36 33.8367ZM133.56 37.5867L132.836 35.7221C130.855 36.4908 128.67 36.8867 126.26 36.8867V38.8867V40.8867C129.116 40.8867 131.797 40.4159 134.283 39.4512L133.56 37.5867ZM126.26 35.5867V37.5867C128.585 37.5867 130.772 37.1982 132.796 36.396L132.06 34.5367L131.323 32.6773C129.814 33.2751 128.134 33.5867 126.26 33.5867V35.5867ZM132.06 34.5367L132.814 36.3889C134.847 35.5608 136.625 34.4 138.124 32.9009L136.71 31.4867L135.296 30.0725C134.195 31.1733 132.873 32.0459 131.305 32.6845L132.06 34.5367ZM136.71 31.4867L138.124 32.9009C139.639 31.3858 140.818 29.637 141.652 27.6659L139.81 26.8867L137.968 26.1074C137.335 27.6031 136.447 28.9209 135.296 30.0725L136.71 31.4867ZM139.81 26.8867L141.657 27.6534C142.501 25.6209 142.91 23.424 142.91 21.0867H140.91H138.91C138.91 22.9494 138.586 24.6191 137.963 26.1199L139.81 26.8867ZM140.91 21.0867H142.91C142.91 18.75 142.501 16.5643 141.652 14.5574L139.81 15.3367L137.968 16.1159C138.585 17.5757 138.91 19.2234 138.91 21.0867H140.91ZM139.81 15.3367L141.657 14.5699C140.823 12.5602 139.638 10.7988 138.106 9.30467L136.71 10.7367L135.314 12.1687C136.448 13.2745 137.33 14.5798 137.963 16.1034L139.81 15.3367ZM136.71 10.7367L138.142 9.34047C136.635 7.79481 134.841 6.62233 132.785 5.82266L132.06 7.68667L131.335 9.55068C132.879 10.151 134.185 11.0119 135.278 12.1329L136.71 10.7367ZM132.06 7.68667L132.827 5.83949C130.794 4.9958 128.597 4.58667 126.26 4.58667V6.58667V8.58667C128.122 8.58667 129.792 8.91087 131.293 9.53385L132.06 7.68667ZM126.26 6.58667V4.58667C123.922 4.58667 121.713 4.99592 119.655 5.83448L120.41 7.68667L121.164 9.53885C122.706 8.91075 124.398 8.58667 126.26 8.58667V6.58667ZM120.41 7.68667L119.685 5.82266C117.633 6.62068 115.83 7.7882 114.296 9.32245L115.71 10.7367L117.124 12.1509C118.256 11.0185 119.587 10.1527 121.135 9.55068L120.41 7.68667ZM115.71 10.7367L114.296 9.32245C112.809 10.8086 111.637 12.5543 110.775 14.5405L112.61 15.3367L114.444 16.1329C115.116 14.5857 116.01 13.2648 117.124 12.1509L115.71 10.7367ZM112.61 15.3367L110.768 14.5574C109.919 16.5643 109.51 18.75 109.51 21.0867H111.51H113.51C113.51 19.2234 113.834 17.5757 114.452 16.1159L112.61 15.3367ZM111.51 21.0867H109.51C109.51 23.3951 109.92 25.5747 110.763 27.6034L112.61 26.8367L114.457 26.0699C113.832 24.5653 113.51 22.9115 113.51 21.0867H111.51ZM112.61 26.8367L110.775 27.6329C111.635 29.6146 112.802 31.3697 114.278 32.8829L115.71 31.4867L117.142 30.0905C116.017 28.937 115.118 27.5921 114.444 26.0405L112.61 26.8367ZM115.71 31.4867L114.314 32.9187C115.84 34.4067 117.627 35.5625 119.655 36.3889L120.41 34.5367L121.164 32.6845C119.593 32.0442 118.246 31.1667 117.106 30.0547L115.71 31.4867ZM120.41 34.5367L119.685 36.4007C121.735 37.1981 123.934 37.5867 126.26 37.5867V35.5867V33.5867C124.386 33.5867 122.684 33.2752 121.135 32.6727L120.41 34.5367ZM160.803 37.5867L160.056 39.4417L160.068 39.4465L160.08 39.4512L160.803 37.5867ZM155.003 33.8367L153.604 35.2654L153.604 35.2654L155.003 33.8367ZM151.153 28.1867L149.306 28.9539L149.311 28.9659L149.316 28.9779L151.153 28.1867ZM151.153 13.9867L149.316 13.1954L149.311 13.2074L149.306 13.2195L151.153 13.9867ZM155.003 8.33667L153.618 6.89389L153.611 6.90089L153.604 6.90795L155.003 8.33667ZM160.853 4.63667L161.577 6.5012L161.589 6.49653L161.601 6.49171L160.853 4.63667ZM175.303 4.58667L174.58 6.4512L174.592 6.45592L174.604 6.46047L175.303 4.58667ZM180.953 8.38667L182.367 9.80088L183.711 8.45769L182.438 7.04713L180.953 8.38667ZM178.603 10.7367L177.173 12.1345L178.587 13.5814L180.017 12.1509L178.603 10.7367ZM173.853 7.58667L173.135 9.45336L173.151 9.45941L173.167 9.4652L173.853 7.58667ZM162.403 7.68667L163.128 9.55068L163.143 9.54488L163.158 9.53885L162.403 7.68667ZM157.703 10.7367L159.099 12.1687L159.108 12.1598L159.117 12.1509L157.703 10.7367ZM154.553 15.3367L152.718 14.5405L152.715 14.5489L152.711 14.5574L154.553 15.3367ZM154.553 26.8867L152.706 27.6534L152.715 27.6747L152.724 27.6957L154.553 26.8867ZM157.703 31.4867L156.289 32.9009L156.298 32.9098L156.307 32.9187L157.703 31.4867ZM162.403 34.5367L161.649 36.3889L161.663 36.3949L161.678 36.4007L162.403 34.5367ZM173.853 34.5867L174.571 36.4534L174.571 36.4534L173.853 34.5867ZM178.603 31.3867L180.017 29.9725L178.587 28.5419L177.173 29.9888L178.603 31.3867ZM180.953 33.7367L182.438 35.0762L183.711 33.6657L182.367 32.3225L180.953 33.7367ZM175.303 37.5867L176.027 39.4512L176.027 39.4512L175.303 37.5867ZM168.103 38.8867V36.8867C165.693 36.8867 163.507 36.4908 161.527 35.7221L160.803 37.5867L160.08 39.4512C162.565 40.4159 165.247 40.8867 168.103 40.8867V38.8867ZM160.803 37.5867L161.551 35.7316C159.547 34.9243 157.839 33.8148 156.403 32.408L155.003 33.8367L153.604 35.2654C155.434 37.0585 157.592 38.449 160.056 39.4417L160.803 37.5867ZM155.003 33.8367L156.403 32.408C154.961 30.9958 153.824 29.3309 152.99 27.3954L151.153 28.1867L149.316 28.9779C150.349 31.3757 151.778 33.4775 153.604 35.2654L155.003 33.8367ZM151.153 28.1867L153 27.4195C152.21 25.5179 151.803 23.4149 151.803 21.0867H149.803H147.803C147.803 23.8918 148.296 26.5221 149.306 28.9539L151.153 28.1867ZM149.803 21.0867H151.803C151.803 18.7584 152.21 16.6554 153 14.7539L151.153 13.9867L149.306 13.2195C148.296 15.6513 147.803 18.2816 147.803 21.0867H149.803ZM151.153 13.9867L152.99 14.7779C153.824 12.8424 154.961 11.1775 156.403 9.76539L155.003 8.33667L153.604 6.90795C151.778 8.6958 150.349 10.7976 149.316 13.1954L151.153 13.9867ZM155.003 8.33667L156.388 9.77944C157.857 8.36908 159.58 7.27593 161.577 6.5012L160.853 4.63667L160.13 2.77214C157.659 3.73074 155.482 5.10425 153.618 6.89389L155.003 8.33667ZM160.853 4.63667L161.601 6.49171C163.575 5.69606 165.752 5.28667 168.153 5.28667V3.28667V1.28667C165.288 1.28667 162.598 1.77727 160.106 2.78163L160.853 4.63667ZM168.153 3.28667V5.28667C170.453 5.28667 172.59 5.67913 174.58 6.4512L175.303 4.58667L176.027 2.72214C173.55 1.76087 170.92 1.28667 168.153 1.28667V3.28667ZM175.303 4.58667L174.604 6.46047C176.549 7.18624 178.159 8.27483 179.468 9.72621L180.953 8.38667L182.438 7.04713C180.681 5.09851 178.524 3.65376 176.002 2.71286L175.303 4.58667ZM180.953 8.38667L179.539 6.97245L177.189 9.32245L178.603 10.7367L180.017 12.1509L182.367 9.80088L180.953 8.38667ZM178.603 10.7367L180.034 9.3388C178.415 7.68234 176.584 6.45501 174.54 5.70814L173.853 7.58667L173.167 9.4652C174.589 9.985 175.925 10.8577 177.173 12.1345L178.603 10.7367ZM173.853 7.58667L174.571 5.71998C172.592 4.95862 170.48 4.58667 168.253 4.58667V6.58667V8.58667C170.027 8.58667 171.648 8.88138 173.135 9.45336L173.853 7.58667ZM168.253 6.58667V4.58667C165.915 4.58667 163.707 4.99592 161.649 5.83448L162.403 7.68667L163.158 9.53885C164.699 8.91075 166.391 8.58667 168.253 8.58667V6.58667ZM162.403 7.68667L161.678 5.82266C159.626 6.62068 157.823 7.7882 156.289 9.32245L157.703 10.7367L159.117 12.1509C160.25 11.0185 161.58 10.1527 163.128 9.55068L162.403 7.68667ZM157.703 10.7367L156.307 9.30467C154.781 10.7923 153.585 12.5437 152.718 14.5405L154.553 15.3367L156.388 16.1329C157.055 14.5963 157.958 13.281 159.099 12.1687L157.703 10.7367ZM154.553 15.3367L152.711 14.5574C151.862 16.5643 151.453 18.75 151.453 21.0867H153.453H155.453C155.453 19.2234 155.777 17.5757 156.395 16.1159L154.553 15.3367ZM153.453 21.0867H151.453C151.453 23.424 151.862 25.6209 152.706 27.6534L154.553 26.8867L156.4 26.1199C155.777 24.6191 155.453 22.9494 155.453 21.0867H153.453ZM154.553 26.8867L152.724 27.6957C153.59 29.6534 154.78 31.3922 156.289 32.9009L157.703 31.4867L159.117 30.0725C157.959 28.9145 157.05 27.5866 156.382 26.0777L154.553 26.8867ZM157.703 31.4867L156.307 32.9187C157.833 34.4067 159.62 35.5625 161.649 36.3889L162.403 34.5367L163.158 32.6845C161.586 32.0442 160.24 31.1667 159.099 30.0547L157.703 31.4867ZM162.403 34.5367L161.678 36.4007C163.729 37.1981 165.927 37.5867 168.253 37.5867V35.5867V33.5867C166.379 33.5867 164.677 33.2752 163.128 32.6727L162.403 34.5367ZM168.253 35.5867V37.5867C170.48 37.5867 172.592 37.2147 174.571 36.4534L173.853 34.5867L173.135 32.72C171.648 33.292 170.027 33.5867 168.253 33.5867V35.5867ZM173.853 34.5867L174.571 36.4534C176.6 35.6731 178.42 34.4353 180.034 32.7845L178.603 31.3867L177.173 29.9888C175.919 31.2714 174.573 32.1669 173.135 32.72L173.853 34.5867ZM178.603 31.3867L177.189 32.8009L179.539 35.1509L180.953 33.7367L182.367 32.3225L180.017 29.9725L178.603 31.3867ZM180.953 33.7367L179.468 32.3971C178.154 33.8542 176.535 34.9631 174.58 35.7221L175.303 37.5867L176.027 39.4512C178.537 38.4769 180.686 37.0192 182.438 35.0762L180.953 33.7367ZM175.303 37.5867L174.58 35.7221C172.593 36.493 170.44 36.8867 168.103 36.8867V38.8867V40.8867C170.899 40.8867 173.547 40.4136 176.027 39.4512L175.303 37.5867ZM196.058 37.5867L195.311 39.4417L195.327 39.4484L195.344 39.4548L196.058 37.5867ZM190.208 33.8367L188.794 35.2509L188.808 35.2653L188.823 35.2794L190.208 33.8367ZM186.358 28.1867L184.511 28.9539L184.518 28.9712L184.526 28.9883L186.358 28.1867ZM186.358 14.0367L184.521 13.2454L184.518 13.2523L184.515 13.2593L186.358 14.0367ZM190.208 8.38667L191.608 9.81539L191.608 9.81509L190.208 8.38667ZM196.058 4.63667L196.782 6.5012L196.794 6.49653L196.806 6.49171L196.058 4.63667ZM210.708 4.63667L209.961 6.49171L209.973 6.49653L209.985 6.5012L210.708 4.63667ZM216.508 8.33667L215.109 9.76539L215.116 9.77245L215.123 9.77944L216.508 8.33667ZM220.358 13.9867L218.511 14.7539L218.516 14.7659L218.521 14.7779L220.358 13.9867ZM220.358 28.1867L218.521 27.3954L218.516 27.4074L218.511 27.4195L220.358 28.1867ZM216.508 33.8367L215.123 32.3939L215.116 32.4009L215.109 32.408L216.508 33.8367ZM210.708 37.5867L211.432 39.4512L211.444 39.4465L211.456 39.4417L210.708 37.5867ZM209.208 34.5367L209.945 36.396L209.954 36.3925L209.963 36.3889L209.208 34.5367ZM213.858 31.4867L212.444 30.0725L212.444 30.0725L213.858 31.4867ZM216.958 26.8867L218.8 27.666L218.805 27.6534L216.958 26.8867ZM216.958 15.3367L215.111 16.1034L215.116 16.1159L216.958 15.3367ZM213.858 10.7367L212.426 12.1329L212.444 12.151L212.462 12.1687L213.858 10.7367ZM209.208 7.68667L208.441 9.53385L208.462 9.5425L208.483 9.55068L209.208 7.68667ZM197.558 7.68667L198.283 9.55068L198.298 9.54488L198.313 9.53885L197.558 7.68667ZM192.858 10.7367L191.444 9.32245L191.444 9.32245L192.858 10.7367ZM189.758 15.3367L187.924 14.5405L187.92 14.5489L187.916 14.5574L189.758 15.3367ZM189.758 26.8367L187.911 27.6034L187.917 27.6182L187.924 27.6329L189.758 26.8367ZM192.858 31.4867L191.426 32.8829L191.444 32.901L191.462 32.9187L192.858 31.4867ZM197.558 34.5367L196.804 36.3889L196.818 36.3949L196.833 36.4007L197.558 34.5367ZM203.408 38.8867V36.8867C200.998 36.8867 198.792 36.4909 196.772 35.7186L196.058 37.5867L195.344 39.4548C197.857 40.4158 200.552 40.8867 203.408 40.8867V38.8867ZM196.058 37.5867L196.806 35.7316C194.799 34.923 193.068 33.8096 191.593 32.3939L190.208 33.8367L188.823 35.2794C190.682 37.0637 192.851 38.4503 195.311 39.4417L196.058 37.5867ZM190.208 33.8367L191.622 32.4225C190.167 30.9669 189.025 29.2918 188.191 27.385L186.358 28.1867L184.526 28.9883C185.558 31.3482 186.983 33.4398 188.794 35.2509L190.208 33.8367ZM186.358 28.1867L188.205 27.4195C187.415 25.5179 187.008 23.4149 187.008 21.0867H185.008H183.008C183.008 23.8918 183.501 26.5221 184.511 28.9539L186.358 28.1867ZM185.008 21.0867H187.008C187.008 18.758 187.415 16.6759 188.201 14.8141L186.358 14.0367L184.515 13.2593C183.501 15.6641 183.008 18.282 183.008 21.0867H185.008ZM186.358 14.0367L188.195 14.8279C189.029 12.8924 190.166 11.2275 191.608 9.81539L190.208 8.38667L188.809 6.95795C186.984 8.7458 185.554 10.8476 184.521 13.2454L186.358 14.0367ZM190.208 8.38667L191.608 9.81509C193.076 8.37655 194.794 7.27249 196.782 6.5012L196.058 4.63667L195.335 2.77214C192.856 3.73418 190.674 5.13012 188.808 6.95824L190.208 8.38667ZM196.058 4.63667L196.806 6.49171C198.777 5.69724 200.97 5.28667 203.408 5.28667V3.28667V1.28667C200.513 1.28667 197.806 1.7761 195.311 2.78163L196.058 4.63667ZM203.408 3.28667V5.28667C205.809 5.28667 207.986 5.69606 209.961 6.49171L210.708 4.63667L211.456 2.78163C208.963 1.77727 206.274 1.28667 203.408 1.28667V3.28667ZM210.708 4.63667L209.985 6.5012C211.978 7.27464 213.678 8.36395 215.109 9.76539L216.508 8.33667L217.908 6.90795C216.072 5.10939 213.905 3.73203 211.432 2.77214L210.708 4.63667ZM216.508 8.33667L215.123 9.77944C216.588 11.1855 217.715 12.8378 218.511 14.7539L220.358 13.9867L222.205 13.2195C221.201 10.8022 219.762 8.68785 217.893 6.89389L216.508 8.33667ZM220.358 13.9867L218.521 14.7779C219.338 16.6734 219.758 18.768 219.758 21.0867H221.758H223.758C223.758 18.2721 223.245 15.6333 222.195 13.1954L220.358 13.9867ZM221.758 21.0867H219.758C219.758 23.4054 219.338 25.4999 218.521 27.3954L220.358 28.1867L222.195 28.9779C223.245 26.5401 223.758 23.9013 223.758 21.0867H221.758ZM220.358 28.1867L218.511 27.4195C217.715 29.3356 216.588 30.9879 215.123 32.3939L216.508 33.8367L217.893 35.2794C219.762 33.4855 221.201 31.3711 222.205 28.9539L220.358 28.1867ZM216.508 33.8367L215.109 32.408C213.672 33.8148 211.964 34.9243 209.961 35.7316L210.708 37.5867L211.456 39.4417C213.919 38.449 216.077 37.0585 217.908 35.2654L216.508 33.8367ZM210.708 37.5867L209.985 35.7221C208.004 36.4908 205.819 36.8867 203.408 36.8867V38.8867V40.8867C206.264 40.8867 208.946 40.4159 211.432 39.4512L210.708 37.5867ZM203.408 35.5867V37.5867C205.734 37.5867 207.92 37.1982 209.945 36.396L209.208 34.5367L208.471 32.6773C206.963 33.2751 205.282 33.5867 203.408 33.5867V35.5867ZM209.208 34.5367L209.963 36.3889C211.995 35.5608 213.773 34.4 215.272 32.9009L213.858 31.4867L212.444 30.0725C211.343 31.1733 210.021 32.0459 208.454 32.6845L209.208 34.5367ZM213.858 31.4867L215.272 32.9009C216.788 31.3858 217.966 29.637 218.8 27.6659L216.958 26.8867L215.116 26.1074C214.483 27.6031 213.596 28.9209 212.444 30.0725L213.858 31.4867ZM216.958 26.8867L218.805 27.6534C219.649 25.6209 220.058 23.424 220.058 21.0867H218.058H216.058C216.058 22.9494 215.734 24.6191 215.111 26.1199L216.958 26.8867ZM218.058 21.0867H220.058C220.058 18.75 219.649 16.5643 218.8 14.5574L216.958 15.3367L215.116 16.1159C215.734 17.5757 216.058 19.2234 216.058 21.0867H218.058ZM216.958 15.3367L218.805 14.5699C217.971 12.5602 216.787 10.7988 215.254 9.30467L213.858 10.7367L212.462 12.1687C213.596 13.2745 214.479 14.5798 215.111 16.1034L216.958 15.3367ZM213.858 10.7367L215.29 9.34047C213.783 7.79481 211.989 6.62233 209.933 5.82266L209.208 7.68667L208.483 9.55068C210.027 10.151 211.333 11.0119 212.426 12.1329L213.858 10.7367ZM209.208 7.68667L209.975 5.83949C207.942 4.9958 205.745 4.58667 203.408 4.58667V6.58667V8.58667C205.271 8.58667 206.941 8.91087 208.441 9.53385L209.208 7.68667ZM203.408 6.58667V4.58667C201.07 4.58667 198.862 4.99592 196.804 5.83448L197.558 7.68667L198.313 9.53885C199.855 8.91075 201.546 8.58667 203.408 8.58667V6.58667ZM197.558 7.68667L196.833 5.82266C194.781 6.62068 192.978 7.7882 191.444 9.32245L192.858 10.7367L194.272 12.1509C195.405 11.0185 196.735 10.1527 198.283 9.55068L197.558 7.68667ZM192.858 10.7367L191.444 9.32245C189.958 10.8086 188.785 12.5543 187.924 14.5405L189.758 15.3367L191.593 16.1329C192.264 14.5857 193.159 13.2648 194.272 12.1509L192.858 10.7367ZM189.758 15.3367L187.916 14.5574C187.067 16.5643 186.658 18.75 186.658 21.0867H188.658H190.658C190.658 19.2234 190.983 17.5757 191.6 16.1159L189.758 15.3367ZM188.658 21.0867H186.658C186.658 23.3951 187.069 25.5747 187.911 27.6034L189.758 26.8367L191.605 26.0699C190.981 24.5653 190.658 22.9115 190.658 21.0867H188.658ZM189.758 26.8367L187.924 27.6329C188.784 29.6146 189.951 31.3697 191.426 32.8829L192.858 31.4867L194.29 30.0905C193.166 28.937 192.266 27.5921 191.593 26.0405L189.758 26.8367ZM192.858 31.4867L191.462 32.9187C192.988 34.4067 194.775 35.5625 196.804 36.3889L197.558 34.5367L198.313 32.6845C196.741 32.0442 195.395 31.1667 194.254 30.0547L192.858 31.4867ZM197.558 34.5367L196.833 36.4007C198.884 37.1981 201.082 37.5867 203.408 37.5867V35.5867V33.5867C201.534 33.5867 199.833 33.2752 198.283 32.6727L197.558 34.5367ZM230.052 38.5867H228.052V40.5867H230.052V38.5867ZM230.052 3.58667V1.58667H228.052V3.58667H230.052ZM254.102 5.83667L253.157 7.59963L253.17 7.60631L253.182 7.61281L254.102 5.83667ZM260.702 11.9867L262.42 10.9641L262.42 10.9641L260.702 11.9867ZM260.702 30.1867L262.42 31.2093L262.42 31.2093L260.702 30.1867ZM254.102 36.3867L255.03 38.1583L255.037 38.1542L254.102 36.3867ZM233.752 35.3867H231.752V37.3867H233.752V35.3867ZM252.152 33.5867L253.087 35.3543L253.097 35.3492L252.152 33.5867ZM257.502 28.5367L259.221 29.5578L259.228 29.5461L257.502 28.5367ZM257.502 13.6367L259.221 12.6156L259.221 12.6156L257.502 13.6367ZM252.152 8.63667L251.196 10.3934L251.211 10.4018L251.226 10.4098L252.152 8.63667ZM233.752 6.78667V4.78667H231.752V6.78667H233.752ZM230.052 38.5867H232.052V3.58667H230.052H228.052V38.5867H230.052ZM230.052 3.58667V5.58667H244.302V3.58667V1.58667H230.052V3.58667ZM244.302 3.58667V5.58667C247.763 5.58667 250.695 6.28044 253.157 7.59963L254.102 5.83667L255.046 4.07371C251.908 2.3929 248.307 1.58667 244.302 1.58667V3.58667ZM254.102 5.83667L253.182 7.61281C255.698 8.91526 257.615 10.7104 258.983 13.0093L260.702 11.9867L262.42 10.9641C260.655 7.99626 258.172 5.69141 255.021 4.06053L254.102 5.83667ZM260.702 11.9867L258.983 13.0093C260.344 15.2972 261.052 17.9689 261.052 21.0867H263.052H265.052C265.052 17.3378 264.193 13.9428 262.42 10.9641L260.702 11.9867ZM263.052 21.0867H261.052C261.052 24.2045 260.344 26.8762 258.983 29.1641L260.702 30.1867L262.42 31.2093C264.193 28.2305 265.052 24.8355 265.052 21.0867H263.052ZM260.702 30.1867L258.983 29.1641C257.613 31.467 255.69 33.2825 253.166 34.6191L254.102 36.3867L255.037 38.1542C258.179 36.4908 260.657 34.173 262.42 31.2093L260.702 30.1867ZM254.102 36.3867L253.174 34.615C250.708 35.9067 247.77 36.5867 244.302 36.5867V38.5867V40.5867C248.3 40.5867 251.896 39.7999 255.03 38.1583L254.102 36.3867ZM244.302 38.5867V36.5867H230.052V38.5867V40.5867H244.302V38.5867ZM233.752 35.3867V37.3867H244.102V35.3867V33.3867H233.752V35.3867ZM244.102 35.3867V37.3867C247.46 37.3867 250.478 36.7356 253.087 35.3542L252.152 33.5867L251.216 31.8191C249.292 32.8377 246.943 33.3867 244.102 33.3867V35.3867ZM252.152 33.5867L253.097 35.3492C255.7 33.9532 257.759 32.0207 259.221 29.5577L257.502 28.5367L255.782 27.5156C254.711 29.3193 253.203 30.7535 251.206 31.8241L252.152 33.5867ZM257.502 28.5367L259.228 29.5461C260.694 27.0388 261.402 24.1994 261.402 21.0867H259.402H257.402C257.402 23.5739 256.843 25.7012 255.775 27.5273L257.502 28.5367ZM259.402 21.0867H261.402C261.402 17.946 260.696 15.0997 259.221 12.6156L257.502 13.6367L255.782 14.6577C256.84 16.4403 257.402 18.5607 257.402 21.0867H259.402ZM257.502 13.6367L259.221 12.6156C257.756 10.1476 255.691 8.22725 253.077 6.8635L252.152 8.63667L251.226 10.4098C253.213 11.4461 254.714 12.859 255.782 14.6577L257.502 13.6367ZM252.152 8.63667L253.107 6.87989C250.494 5.45775 247.469 4.78667 244.102 4.78667V6.78667V8.78667C246.935 8.78667 249.276 9.34891 251.196 10.3934L252.152 8.63667ZM244.102 6.78667V4.78667H233.752V6.78667V8.78667H244.102V6.78667ZM233.752 6.78667H231.752V35.3867H233.752H235.752V6.78667H233.752ZM274.66 19.2367V17.2367H272.66V19.2367H274.66ZM293.16 19.2367H295.16V17.2367H293.16V19.2367ZM293.16 22.3867V24.3867H295.16V22.3867H293.16ZM274.66 22.3867H272.66V24.3867H274.66V22.3867ZM275.06 35.3867H273.06V37.3867H275.06V35.3867ZM296.11 35.3867H298.11V33.3867H296.11V35.3867ZM296.11 38.5867V40.5867H298.11V38.5867H296.11ZM271.36 38.5867H269.36V40.5867H271.36V38.5867ZM271.36 3.58667V1.58667H269.36V3.58667H271.36ZM295.36 3.58667H297.36V1.58667H295.36V3.58667ZM295.36 6.78667V8.78667H297.36V6.78667H295.36ZM275.06 6.78667V4.78667H273.06V6.78667H275.06ZM274.66 19.2367V21.2367H293.16V19.2367V17.2367H274.66V19.2367ZM293.16 19.2367H291.16V22.3867H293.16H295.16V19.2367H293.16ZM293.16 22.3867V20.3867H274.66V22.3867V24.3867H293.16V22.3867ZM274.66 22.3867H276.66V19.2367H274.66H272.66V22.3867H274.66ZM275.06 35.3867V37.3867H296.11V35.3867V33.3867H275.06V35.3867ZM296.11 35.3867H294.11V38.5867H296.11H298.11V35.3867H296.11ZM296.11 38.5867V36.5867H271.36V38.5867V40.5867H296.11V38.5867ZM271.36 38.5867H273.36V3.58667H271.36H269.36V38.5867H271.36ZM271.36 3.58667V5.58667H295.36V3.58667V1.58667H271.36V3.58667ZM295.36 3.58667H293.36V6.78667H295.36H297.36V3.58667H295.36ZM295.36 6.78667V4.78667H275.06V6.78667V8.78667H295.36V6.78667ZM275.06 6.78667H273.06V35.3867H275.06H277.06V6.78667H275.06ZM304.807 38.5867H302.807V40.5867H304.807V38.5867ZM304.807 3.58667V1.58667H302.807V3.58667H304.807ZM325.557 5.03667L324.732 6.85838L324.744 6.86376L324.756 6.86898L325.557 5.03667ZM330.457 9.13667L328.765 10.2023L328.777 10.2207L328.788 10.2388L330.457 9.13667ZM330.457 21.9867L328.779 20.8989L328.774 20.9068L330.457 21.9867ZM325.557 26.0867L326.359 27.919L326.371 27.9138L326.383 27.9084L325.557 26.0867ZM306.857 27.4867L305.422 26.0937L302.129 29.4867H306.857V27.4867ZM308.507 25.7867H310.507V20.8545L307.072 24.3937L308.507 25.7867ZM308.507 38.5867V40.5867H310.507V38.5867H308.507ZM328.707 38.5867L327.076 39.7431L327.673 40.5867H328.707V38.5867ZM319.707 25.8867V23.8867H315.839L318.076 27.0431L319.707 25.8867ZM323.707 25.8867L325.336 24.726L324.738 23.8867H323.707V25.8867ZM332.757 38.5867V40.5867H336.638L334.386 37.426L332.757 38.5867ZM308.507 26.0867L307.052 27.4587L310.507 31.1233V26.0867H308.507ZM306.857 24.3367V22.3367H302.223L305.402 25.7087L306.857 24.3367ZM325.757 22.0367L324.474 20.5025L324.467 20.5083L324.46 20.5142L325.757 22.0367ZM325.757 9.08667L324.46 10.6092L324.467 10.615L324.474 10.6208L325.757 9.08667ZM306.857 6.78667L305.402 5.41464L302.223 8.78667H306.857V6.78667ZM308.507 5.03667H310.507V6.47072e-05L307.052 3.66464L308.507 5.03667ZM304.807 38.5867H306.807V3.58667H304.807H302.807V38.5867H304.807ZM304.807 3.58667V5.58667H317.907V3.58667V1.58667H304.807V3.58667ZM317.907 3.58667V5.58667C320.663 5.58667 322.917 6.03614 324.732 6.85838L325.557 5.03667L326.383 3.21496C323.931 2.10387 321.085 1.58667 317.907 1.58667V3.58667ZM325.557 5.03667L324.756 6.86898C326.558 7.65764 327.865 8.77338 328.765 10.2023L330.457 9.13667L332.15 8.07104C330.783 5.89995 328.823 4.28237 326.359 3.20435L325.557 5.03667ZM330.457 9.13667L328.788 10.2388C329.7 11.6188 330.207 13.367 330.207 15.5867H332.207H334.207C334.207 12.7396 333.548 10.1879 332.126 8.03454L330.457 9.13667ZM332.207 15.5867H330.207C330.207 17.7266 329.706 19.4693 328.779 20.8989L330.457 21.9867L332.136 23.0745C333.542 20.9041 334.207 18.38 334.207 15.5867H332.207ZM330.457 21.9867L328.774 20.9068C327.873 22.3117 326.556 23.4385 324.732 24.265L325.557 26.0867L326.383 27.9084C328.826 26.8015 330.775 25.195 332.141 23.0666L330.457 21.9867ZM325.557 26.0867L324.756 24.2544C322.934 25.0512 320.671 25.4867 317.907 25.4867V27.4867V29.4867C321.077 29.4867 323.914 28.9888 326.359 27.919L325.557 26.0867ZM317.907 27.4867V25.4867H306.857V27.4867V29.4867H317.907V27.4867ZM306.857 27.4867L308.293 28.8796L309.943 27.1796L308.507 25.7867L307.072 24.3937L305.422 26.0937L306.857 27.4867ZM308.507 25.7867H306.507V38.5867H308.507H310.507V25.7867H308.507ZM308.507 38.5867V36.5867H304.807V38.5867V40.5867H308.507V38.5867ZM328.707 38.5867L330.339 37.4303L321.339 24.7303L319.707 25.8867L318.076 27.0431L327.076 39.7431L328.707 38.5867ZM319.707 25.8867V27.8867H323.707V25.8867V23.8867H319.707V25.8867ZM323.707 25.8867L322.079 27.0473L331.129 39.7473L332.757 38.5867L334.386 37.426L325.336 24.726L323.707 25.8867ZM332.757 38.5867V36.5867H328.707V38.5867V40.5867H332.757V38.5867ZM308.507 26.0867L309.963 24.7146L308.313 22.9646L306.857 24.3367L305.402 25.7087L307.052 27.4587L308.507 26.0867ZM306.857 24.3367V26.3367H317.807V24.3367V22.3367H306.857V24.3367ZM317.807 24.3367V26.3367C321.561 26.3367 324.754 25.5191 327.054 23.5592L325.757 22.0367L324.46 20.5142C323.161 21.6209 321.054 22.3367 317.807 22.3367V24.3367ZM325.757 22.0367L327.041 23.5708C329.402 21.5954 330.507 18.8416 330.507 15.5867H328.507H326.507C326.507 17.8651 325.779 19.4112 324.474 20.5025L325.757 22.0367ZM328.507 15.5867H330.507C330.507 12.3072 329.408 9.53276 327.041 7.55252L325.757 9.08667L324.474 10.6208C325.773 11.7072 326.507 13.2661 326.507 15.5867H328.507ZM325.757 9.08667L327.054 7.56418C324.754 5.60426 321.561 4.78667 317.807 4.78667V6.78667V8.78667C321.054 8.78667 323.161 9.50241 324.46 10.6092L325.757 9.08667ZM317.807 6.78667V4.78667H306.857V6.78667V8.78667H317.807V6.78667ZM306.857 6.78667L308.313 8.15869L309.963 6.4087L308.507 5.03667L307.052 3.66464L305.402 5.41464L306.857 6.78667ZM308.507 5.03667H306.507V26.0867H308.507H310.507V5.03667H308.507Z" fill="white" mask="url(#path-1-outside-1_618_3)"/>
</svg>
