<svg width="739" height="90" viewBox="0 0 739 90" fill="none" xmlns="http://www.w3.org/2000/svg">
<path d="M65.8935 84.0801L62.1401 85.4629L63.1044 88.0801H65.8935V84.0801ZM60.4055 69.1841L64.1589 67.8013L63.1947 65.1841H60.4055V69.1841ZM29.1575 69.1841V65.1841H26.3486L25.395 67.8262L29.1575 69.1841ZM23.7815 84.0801V88.0801H26.5904L27.544 85.438L23.7815 84.0801ZM5.86152 84.0801L2.1367 82.6221L0.000284968 88.0801H5.86152V84.0801ZM36.5495 5.68007V1.68007H33.8197L32.8247 4.22207L36.5495 5.68007ZM52.5655 5.68007L56.2739 4.18082L55.2629 1.68007H52.5655V5.68007ZM84.2615 84.0801V88.0801H90.1932L87.9699 82.5808L84.2615 84.0801ZM44.7255 26.4001L48.4794 25.0186L44.705 14.7621L40.9668 25.0319L44.7255 26.4001ZM34.5335 54.4001L30.7748 53.0319L28.8208 58.4001H34.5335V54.4001ZM55.0295 54.4001V58.4001H60.7638L58.7834 53.0186L55.0295 54.4001ZM65.8935 84.0801L69.6469 82.6973L64.1589 67.8013L60.4055 69.1841L56.6521 70.5669L62.1401 85.4629L65.8935 84.0801ZM60.4055 69.1841V65.1841H29.1575V69.1841V73.1841H60.4055V69.1841ZM29.1575 69.1841L25.395 67.8262L20.0191 82.7222L23.7815 84.0801L27.544 85.438L32.92 70.542L29.1575 69.1841ZM23.7815 84.0801V80.0801H5.86152V84.0801V88.0801H23.7815V84.0801ZM5.86152 84.0801L9.58633 85.5381L40.2743 7.13807L36.5495 5.68007L32.8247 4.22207L2.1367 82.6221L5.86152 84.0801ZM36.5495 5.68007V9.68007H52.5655V5.68007V1.68007H36.5495V5.68007ZM52.5655 5.68007L48.8571 7.17933L80.5531 85.5793L84.2615 84.0801L87.9699 82.5808L56.2739 4.18082L52.5655 5.68007ZM84.2615 84.0801V80.0801H65.8935V84.0801V88.0801H84.2615V84.0801ZM44.7255 26.4001L40.9668 25.0319L30.7748 53.0319L34.5335 54.4001L38.2923 55.7683L48.4843 27.7683L44.7255 26.4001ZM34.5335 54.4001V58.4001H55.0295V54.4001V50.4001H34.5335V54.4001ZM55.0295 54.4001L58.7834 53.0186L48.4794 25.0186L44.7255 26.4001L40.9716 27.7815L51.2756 55.7815L55.0295 54.4001ZM148.259 77.0241L145.502 74.1258L145.502 74.1258L148.259 77.0241ZM101.891 77.0241L99.1342 79.9223L99.1342 79.9223L101.891 77.0241ZM92.707 5.68007V1.68007H88.707V5.68007H92.707ZM109.731 5.68007H113.731V1.68007H109.731V5.68007ZM113.987 65.3761L111.122 68.1675L111.122 68.1675L113.987 65.3761ZM136.163 65.3761L133.335 62.5477L133.316 62.566L133.298 62.5846L136.163 65.3761ZM140.531 5.68007V1.68007H136.531V5.68007H140.531ZM157.443 5.68007H161.443V1.68007H157.443V5.68007ZM148.259 77.0241L145.502 74.1258C140.204 79.1659 133.499 81.7601 125.075 81.7601V85.7601V89.7601C135.318 89.7601 144.069 86.5302 151.016 79.9223L148.259 77.0241ZM125.075 85.7601V81.7601C116.651 81.7601 109.946 79.1659 104.648 74.1258L101.891 77.0241L99.1342 79.9223C106.081 86.5302 114.832 89.7601 125.075 89.7601V85.7601ZM101.891 77.0241L104.648 74.1258C99.3854 69.1201 96.707 62.733 96.707 54.6241H92.707H88.707C88.707 64.7338 92.1513 73.2801 99.1342 79.9223L101.891 77.0241ZM92.707 54.6241H96.707V5.68007H92.707H88.707V54.6241H92.707ZM92.707 5.68007V9.68007H109.731V5.68007V1.68007H92.707V5.68007ZM109.731 5.68007H105.731V53.8401H109.731H113.731V5.68007H109.731ZM109.731 53.8401H105.731C105.731 59.4654 107.431 64.379 111.122 68.1675L113.987 65.3761L116.852 62.5846C114.869 60.5492 113.731 57.7721 113.731 53.8401H109.731ZM113.987 65.3761L111.122 68.1675C114.806 71.9486 119.584 73.7441 125.075 73.7441V69.7441V65.7441C121.457 65.7441 118.842 64.6275 116.852 62.5846L113.987 65.3761ZM125.075 69.7441V73.7441C130.566 73.7441 135.344 71.9486 139.028 68.1675L136.163 65.3761L133.298 62.5846C131.308 64.6275 128.693 65.7441 125.075 65.7441V69.7441ZM136.163 65.3761L138.991 68.2045C142.774 64.4216 144.531 59.4956 144.531 53.8401H140.531H136.531C136.531 57.7419 135.376 60.5066 133.335 62.5477L136.163 65.3761ZM140.531 53.8401H144.531V5.68007H140.531H136.531V53.8401H140.531ZM140.531 5.68007V9.68007H157.443V5.68007V1.68007H140.531V5.68007ZM157.443 5.68007H153.443V54.6241H157.443H161.443V5.68007H157.443ZM157.443 54.6241H153.443C153.443 62.733 150.765 69.1201 145.502 74.1258L148.259 77.0241L151.016 79.9223C157.999 73.2801 161.443 64.7338 161.443 54.6241H157.443ZM230.874 5.68007H234.874V1.68007H230.874V5.68007ZM230.874 21.4721V25.4721H234.874V21.4721H230.874ZM209.034 21.4721V17.4721H205.034V21.4721H209.034ZM209.034 84.0801V88.0801H213.034V84.0801H209.034ZM192.01 84.0801H188.01V88.0801H192.01V84.0801ZM192.01 21.4721H196.01V17.4721H192.01V21.4721ZM170.282 21.4721H166.282V25.4721H170.282V21.4721ZM170.282 5.68007V1.68007H166.282V5.68007H170.282ZM230.874 5.68007H226.874V21.4721H230.874H234.874V5.68007H230.874ZM230.874 21.4721V17.4721H209.034V21.4721V25.4721H230.874V21.4721ZM209.034 21.4721H205.034V84.0801H209.034H213.034V21.4721H209.034ZM209.034 84.0801V80.0801H192.01V84.0801V88.0801H209.034V84.0801ZM192.01 84.0801H196.01V21.4721H192.01H188.01V84.0801H192.01ZM192.01 21.4721V17.4721H170.282V21.4721V25.4721H192.01V21.4721ZM170.282 21.4721H174.282V5.68007H170.282H166.282V21.4721H170.282ZM170.282 5.68007V9.68007H230.874V5.68007V1.68007H170.282V5.68007ZM249.189 74.1121L246.374 76.9539L246.387 76.9672L246.401 76.9804L249.189 74.1121ZM249.189 15.7601L251.99 18.6153L251.99 18.6151L249.189 15.7601ZM300.373 9.37607L298.406 12.8591L298.43 12.8728L298.454 12.8861L300.373 9.37607ZM315.381 24.0481L311.908 26.0326L311.913 26.0416L311.918 26.0506L315.381 24.0481ZM308.885 74.1121L306.083 71.2568L308.885 74.1121ZM291.637 66.6081L293.591 70.0981L293.617 70.0833L293.643 70.0682L291.637 66.6081ZM300.373 57.6481L296.895 55.6709L296.881 55.6968L296.866 55.723L300.373 57.6481ZM296.565 27.1841L293.692 29.9673L293.714 29.9901L293.736 30.0125L296.565 27.1841ZM261.509 27.1841L264.337 30.0125L264.337 30.0125L261.509 27.1841ZM261.509 62.6881L258.658 65.4941L258.68 65.5166L258.702 65.5387L261.509 62.6881ZM279.093 85.7601V81.7601C268.104 81.7601 259.162 78.2276 251.976 71.2437L249.189 74.1121L246.401 76.9804C255.194 85.5272 266.188 89.7601 279.093 89.7601V85.7601ZM249.189 74.1121L252.004 71.2703C244.885 64.2188 241.317 55.5149 241.317 44.8801H237.317H233.317C233.317 57.5412 237.663 68.3253 246.374 76.9539L249.189 74.1121ZM237.317 44.8801H241.317C241.317 34.2456 244.884 25.5871 251.99 18.6153L249.189 15.7601L246.387 12.9048C237.664 21.4638 233.317 32.2186 233.317 44.8801H237.317ZM249.189 15.7601L251.99 18.6151C259.178 11.5617 268.116 8.00007 279.093 8.00007V4.00007V7.43866e-05C266.176 7.43866e-05 255.178 4.27841 246.387 12.9051L249.189 15.7601ZM279.093 4.00007V8.00007C286.297 8.00007 292.704 9.63949 298.406 12.8591L300.373 9.37607L302.339 5.89306C295.347 1.94466 287.568 7.43866e-05 279.093 7.43866e-05V4.00007ZM300.373 9.37607L298.454 12.8861C304.235 16.0454 308.696 20.4119 311.908 26.0326L315.381 24.0481L318.853 22.0635C314.897 15.1402 309.353 9.7254 302.291 5.86605L300.373 9.37607ZM315.381 24.0481L311.918 26.0506C315.124 31.5941 316.757 37.8385 316.757 44.8801H320.757H324.757C324.757 36.5403 322.805 28.8967 318.843 22.0456L315.381 24.0481ZM320.757 44.8801H316.757C316.757 55.5972 313.184 64.2904 306.083 71.2568L308.885 74.1121L311.686 76.9673C320.415 68.4031 324.757 57.6083 324.757 44.8801H320.757ZM308.885 74.1121L306.083 71.2568C298.978 78.2281 290.081 81.7601 279.093 81.7601V85.7601V89.7601C291.997 89.7601 302.962 85.5267 311.686 76.9673L308.885 74.1121ZM279.093 69.7441V73.7441C284.349 73.7441 289.212 72.5503 293.591 70.0981L291.637 66.6081L289.682 63.1181C286.594 64.8472 283.095 65.7441 279.093 65.7441V69.7441ZM291.637 66.6081L293.643 70.0682C298.011 67.5348 301.44 64.0154 303.879 59.5731L300.373 57.6481L296.866 55.723C295.124 58.8968 292.728 61.3507 289.63 63.148L291.637 66.6081ZM300.373 57.6481L303.85 59.6253C306.383 55.1703 307.621 50.2245 307.621 44.8801H303.621H299.621C299.621 48.9437 298.693 52.5098 296.895 55.6709L300.373 57.6481ZM303.621 44.8801H307.621C307.621 36.8038 304.9 29.8631 299.393 24.3556L296.565 27.1841L293.736 30.0125C297.637 33.913 299.621 38.7697 299.621 44.8801H303.621ZM296.565 27.1841L299.437 24.4009C294.01 18.798 287.128 16.0161 279.093 16.0161V20.0161V24.0161C285.095 24.0161 289.861 26.0128 293.692 29.9673L296.565 27.1841ZM279.093 20.0161V16.0161C271.12 16.0161 264.232 18.804 258.68 24.3556L261.509 27.1841L264.337 30.0125C268.343 26.0068 273.177 24.0161 279.093 24.0161V20.0161ZM261.509 27.1841L258.68 24.3556C253.173 29.8631 250.453 36.8038 250.453 44.8801H254.453H258.453C258.453 38.7697 260.436 33.913 264.337 30.0125L261.509 27.1841ZM254.453 44.8801H250.453C250.453 52.9561 253.171 59.9206 258.658 65.4941L261.509 62.6881L264.359 59.882C260.438 55.8982 258.453 50.9907 258.453 44.8801H254.453ZM261.509 62.6881L258.702 65.5387C264.259 71.0079 271.14 73.7441 279.093 73.7441V69.7441V65.7441C273.157 65.7441 268.316 63.7762 264.315 59.8375L261.509 62.6881ZM351.696 80.4961L349.693 83.9587L349.709 83.9678L349.725 83.9768L351.696 80.4961ZM337.136 65.8241L333.645 67.7772L333.65 67.7862L333.655 67.7951L337.136 65.8241ZM343.408 15.7601L340.566 12.9452L340.559 12.9521L340.552 12.959L343.408 15.7601ZM397.056 12.6241L394.505 15.7051L394.505 15.7051L397.056 12.6241ZM410.272 35.2481V39.2481H415.151L414.194 34.4636L410.272 35.2481ZM393.248 35.2481L389.462 36.5407L390.387 39.2481H393.248V35.2481ZM388.656 27.2961L385.639 29.9232L385.661 29.9477L385.682 29.9719L388.656 27.2961ZM381.376 22.0321L379.706 25.6668L379.764 25.6936L379.823 25.7186L381.376 22.0321ZM355.616 27.2961L352.697 24.5603L352.696 24.5619L355.616 27.2961ZM355.616 62.5761L352.696 65.3103L352.708 65.3225L352.719 65.3347L355.616 62.5761ZM393.36 53.3921V49.3921H390.336L389.511 52.3008L393.36 53.3921ZM410.496 53.3921L414.429 54.1183L415.302 49.3921H410.496V53.3921ZM397.28 76.9121L399.869 79.9606L399.872 79.9582L397.28 76.9121ZM372.304 85.7601V81.7601C365.411 81.7601 359.227 80.1641 353.667 77.0154L351.696 80.4961L349.725 83.9768C356.559 87.8467 364.114 89.7601 372.304 89.7601V85.7601ZM351.696 80.4961L353.698 77.0334C348.114 73.8042 343.773 69.427 340.616 63.8531L337.136 65.8241L333.655 67.7951C337.517 74.6158 342.882 80.02 349.693 83.9587L351.696 80.4961ZM337.136 65.8241L340.626 63.8709C337.471 58.2316 335.872 51.9664 335.872 44.9921H331.872H327.872C327.872 53.2497 329.782 60.8726 333.645 67.7772L337.136 65.8241ZM331.872 44.9921H335.872C335.872 34.3214 339.354 25.6047 346.263 18.5612L343.408 15.7601L340.552 12.959C332.08 21.5955 327.872 32.3668 327.872 44.9921H331.872ZM343.408 15.7601L346.25 18.5749C353.229 11.5283 361.822 8.00007 372.304 8.00007V4.00007V7.43866e-05C359.788 7.43866e-05 349.117 4.31189 340.566 12.9452L343.408 15.7601ZM372.304 4.00007V8.00007C380.99 8.00007 388.323 10.5872 394.505 15.7051L397.056 12.6241L399.607 9.54306C391.9 3.16229 382.732 7.43866e-05 372.304 7.43866e-05V4.00007ZM397.056 12.6241L394.505 15.7051C400.7 20.8347 404.652 27.5453 406.349 36.0325L410.272 35.2481L414.194 34.4636C412.158 24.2842 407.299 15.9121 399.607 9.54306L397.056 12.6241ZM410.272 35.2481V31.2481H393.248V35.2481V39.2481H410.272V35.2481ZM393.248 35.2481L397.033 33.9555C395.826 30.421 394.032 27.2905 391.629 24.6202L388.656 27.2961L385.682 29.9719C387.311 31.7816 388.578 33.9525 389.462 36.5407L393.248 35.2481ZM388.656 27.2961L391.672 24.669C389.254 21.8927 386.326 19.7763 382.928 18.3455L381.376 22.0321L379.823 25.7186C382.1 26.6772 384.025 28.0701 385.639 29.9232L388.656 27.2961ZM381.376 22.0321L383.046 18.3974C379.718 16.8684 376.118 16.1281 372.304 16.1281V20.1281V24.1281C375.06 24.1281 377.508 24.6571 379.706 25.6668L381.376 22.0321ZM372.304 20.1281V16.1281C364.571 16.1281 357.946 18.9619 352.697 24.5603L355.616 27.2961L358.534 30.0318C362.245 26.073 366.746 24.1281 372.304 24.1281V20.1281ZM355.616 27.2961L352.696 24.5619C347.524 30.0844 345.008 36.9944 345.008 44.9921H349.008H353.008C353.008 38.8031 354.896 33.9158 358.535 30.0303L355.616 27.2961ZM349.008 44.9921H345.008C345.008 52.9276 347.532 59.7961 352.696 65.3103L355.616 62.5761L358.535 59.8419C354.889 55.9481 353.008 51.0939 353.008 44.9921H349.008ZM355.616 62.5761L352.719 65.3347C357.973 70.8518 364.592 73.6321 372.304 73.6321V69.6321V65.6321C366.725 65.6321 362.218 63.7084 358.512 59.8175L355.616 62.5761ZM372.304 69.6321V73.6321C378.263 73.6321 383.592 71.9276 388.092 68.4181L385.632 65.2641L383.172 62.1101C380.204 64.4246 376.648 65.6321 372.304 65.6321V69.6321ZM385.632 65.2641L388.092 68.4181C392.561 64.9318 395.581 60.219 397.208 54.4834L393.36 53.3921L389.511 52.3008C388.301 56.5705 386.169 59.7723 383.172 62.1101L385.632 65.2641ZM393.36 53.3921V57.3921H410.496V53.3921V49.3921H393.36V53.3921ZM410.496 53.3921L406.562 52.6659C404.924 61.537 400.954 68.5327 394.687 73.8659L397.28 76.9121L399.872 79.9582C407.643 73.3448 412.483 64.6605 414.429 54.1183L410.496 53.3921ZM397.28 76.9121L394.69 73.8635C388.519 79.1059 381.129 81.7601 372.304 81.7601V85.7601V89.7601C382.892 89.7601 392.153 86.5156 399.869 79.9606L397.28 76.9121ZM432.278 74.1121L429.463 76.9539L429.476 76.9672L429.49 76.9804L432.278 74.1121ZM432.278 15.7601L435.079 18.6153L435.08 18.6151L432.278 15.7601ZM483.462 9.37607L481.495 12.8591L481.519 12.8728L481.544 12.8861L483.462 9.37607ZM498.47 24.0481L494.997 26.0326L495.002 26.0416L495.007 26.0506L498.47 24.0481ZM491.974 74.1121L489.173 71.2568L491.974 74.1121ZM474.726 66.6081L476.68 70.0981L476.707 70.0833L476.733 70.0682L474.726 66.6081ZM483.462 57.6481L479.985 55.6709L479.97 55.6968L479.956 55.723L483.462 57.6481ZM479.654 27.1841L476.781 29.9673L476.803 29.9901L476.825 30.0125L479.654 27.1841ZM444.598 27.1841L447.426 30.0125L447.426 30.0125L444.598 27.1841ZM444.598 62.6881L441.747 65.4941L441.769 65.5166L441.792 65.5387L444.598 62.6881ZM462.182 85.7601V81.7601C451.194 81.7601 442.251 78.2276 435.066 71.2437L432.278 74.1121L429.49 76.9804C438.283 85.5272 449.277 89.7601 462.182 89.7601V85.7601ZM432.278 74.1121L435.093 71.2703C427.974 64.2188 424.406 55.5149 424.406 44.8801H420.406H416.406C416.406 57.5412 420.752 68.3253 429.463 76.9539L432.278 74.1121ZM420.406 44.8801H424.406C424.406 34.2456 427.973 25.5871 435.079 18.6153L432.278 15.7601L429.477 12.9048C420.753 21.4638 416.406 32.2186 416.406 44.8801H420.406ZM432.278 15.7601L435.08 18.6151C442.267 11.5617 451.205 8.00007 462.182 8.00007V4.00007V7.43866e-05C449.265 7.43866e-05 438.267 4.27841 429.476 12.9051L432.278 15.7601ZM462.182 4.00007V8.00007C469.386 8.00007 475.794 9.63949 481.495 12.8591L483.462 9.37607L485.429 5.89306C478.437 1.94466 470.657 7.43866e-05 462.182 7.43866e-05V4.00007ZM483.462 9.37607L481.544 12.8861C487.325 16.0454 491.785 20.4119 494.997 26.0326L498.47 24.0481L501.943 22.0635C497.987 15.1402 492.442 9.7254 485.38 5.86605L483.462 9.37607ZM498.47 24.0481L495.007 26.0506C498.213 31.5941 499.846 37.8385 499.846 44.8801H503.846H507.846C507.846 36.5403 505.895 28.8967 501.933 22.0456L498.47 24.0481ZM503.846 44.8801H499.846C499.846 55.5972 496.273 64.2904 489.173 71.2568L491.974 74.1121L494.775 76.9673C503.504 68.4031 507.846 57.6083 507.846 44.8801H503.846ZM491.974 74.1121L489.173 71.2568C482.067 78.2281 473.17 81.7601 462.182 81.7601V85.7601V89.7601C475.087 89.7601 486.051 85.5267 494.775 76.9673L491.974 74.1121ZM462.182 69.7441V73.7441C467.438 73.7441 472.301 72.5503 476.68 70.0981L474.726 66.6081L472.771 63.1181C469.684 64.8472 466.185 65.7441 462.182 65.7441V69.7441ZM474.726 66.6081L476.733 70.0682C481.101 67.5348 484.529 64.0154 486.968 59.5731L483.462 57.6481L479.956 55.723C478.213 58.8968 475.818 61.3507 472.719 63.148L474.726 66.6081ZM483.462 57.6481L486.939 59.6253C489.472 55.1703 490.71 50.2245 490.71 44.8801H486.71H482.71C482.71 48.9437 481.782 52.5098 479.985 55.6709L483.462 57.6481ZM486.71 44.8801H490.71C490.71 36.8038 487.99 29.8631 482.482 24.3556L479.654 27.1841L476.825 30.0125C480.726 33.913 482.71 38.7697 482.71 44.8801H486.71ZM479.654 27.1841L482.527 24.4009C477.099 18.798 470.217 16.0161 462.182 16.0161V20.0161V24.0161C468.184 24.0161 472.95 26.0128 476.781 29.9673L479.654 27.1841ZM462.182 20.0161V16.0161C454.21 16.0161 447.321 18.804 441.769 24.3556L444.598 27.1841L447.426 30.0125C451.432 26.0068 456.266 24.0161 462.182 24.0161V20.0161ZM444.598 27.1841L441.769 24.3556C436.262 29.8631 433.542 36.8038 433.542 44.8801H437.542H441.542C441.542 38.7697 443.526 33.913 447.426 30.0125L444.598 27.1841ZM437.542 44.8801H433.542C433.542 52.9561 436.261 59.9206 441.747 65.4941L444.598 62.6881L447.449 59.882C443.527 55.8982 441.542 50.9907 441.542 44.8801H437.542ZM444.598 62.6881L441.792 65.5387C447.348 71.0079 454.23 73.7441 462.182 73.7441V69.7441V65.7441C456.246 65.7441 451.405 63.7762 447.404 59.8375L444.598 62.6881ZM577.569 16.7681L574.755 19.6107L574.769 19.6248L574.784 19.6388L577.569 16.7681ZM577.569 72.9921L580.383 75.8347L580.383 75.8345L577.569 72.9921ZM519.441 84.0801H515.441V88.0801H519.441V84.0801ZM519.441 5.68007V1.68007H515.441V5.68007H519.441ZM565.137 61.6801L568.014 64.4593L568.014 64.4593L565.137 61.6801ZM565.137 27.9681L567.99 25.1643L567.99 25.1643L565.137 27.9681ZM536.465 21.4721V17.4721H532.465V21.4721H536.465ZM536.465 68.2881H532.465V72.2881H536.465V68.2881ZM549.121 5.68007V9.68007C559.675 9.68007 568.111 13.0336 574.755 19.6107L577.569 16.7681L580.383 13.9255C572.093 5.7185 561.564 1.68007 549.121 1.68007V5.68007ZM577.569 16.7681L574.784 19.6388C581.482 26.1384 584.881 34.4044 584.881 44.7681H588.881H592.881C592.881 32.4331 588.739 22.0324 580.354 13.8973L577.569 16.7681ZM588.881 44.7681H584.881C584.881 55.1319 581.481 63.4902 574.755 70.1496L577.569 72.9921L580.383 75.8345C588.74 67.5607 592.881 57.1029 592.881 44.7681H588.881ZM577.569 72.9921L574.755 70.1495C568.111 76.7265 559.675 80.0801 549.121 80.0801V84.0801V88.0801C561.564 88.0801 572.093 84.0417 580.383 75.8347L577.569 72.9921ZM549.121 84.0801V80.0801H519.441V84.0801V88.0801H549.121V84.0801ZM519.441 84.0801H523.441V5.68007H519.441H515.441V84.0801H519.441ZM519.441 5.68007V9.68007H549.121V5.68007V1.68007H519.441V5.68007ZM548.673 68.2881V72.2881C556.361 72.2881 562.927 69.7248 568.014 64.4593L565.137 61.6801L562.26 58.9008C558.835 62.4461 554.425 64.2881 548.673 64.2881V68.2881ZM565.137 61.6801L568.014 64.4593C573.08 59.2152 575.521 52.5375 575.521 44.7681H571.521H567.521C567.521 50.7373 565.706 55.3342 562.26 58.9008L565.137 61.6801ZM571.521 44.7681H575.521C575.521 36.9996 573.08 30.3435 567.99 25.1643L565.137 27.9681L562.284 30.7718C565.706 34.254 567.521 38.7979 567.521 44.7681H571.521ZM565.137 27.9681L567.99 25.1643C562.898 19.9831 556.34 17.4721 548.673 17.4721V21.4721V25.4721C554.446 25.4721 558.864 27.2918 562.284 30.7718L565.137 27.9681ZM548.673 21.4721V17.4721H536.465V21.4721V25.4721H548.673V21.4721ZM536.465 21.4721H532.465V68.2881H536.465H540.465V21.4721H536.465ZM536.465 68.2881V72.2881H548.673V68.2881V64.2881H536.465V68.2881ZM621.721 68.2881H617.721V72.2881H621.721V68.2881ZM652.969 68.2881H656.969V64.2881H652.969V68.2881ZM652.969 84.0801V88.0801H656.969V84.0801H652.969ZM604.697 84.0801H600.697V88.0801H604.697V84.0801ZM604.697 5.68007V1.68007H600.697V5.68007H604.697ZM651.737 5.68007H655.737V1.68007H651.737V5.68007ZM651.737 21.3601V25.3601H655.737V21.3601H651.737ZM621.721 21.3601V17.3601H617.721V21.3601H621.721ZM621.721 36.8161H617.721V40.8161H621.721V36.8161ZM648.825 36.8161H652.825V32.8161H648.825V36.8161ZM648.825 52.1601V56.1601H652.825V52.1601H648.825ZM621.721 52.1601V48.1601H617.721V52.1601H621.721ZM621.721 68.2881V72.2881H652.969V68.2881V64.2881H621.721V68.2881ZM652.969 68.2881H648.969V84.0801H652.969H656.969V68.2881H652.969ZM652.969 84.0801V80.0801H604.697V84.0801V88.0801H652.969V84.0801ZM604.697 84.0801H608.697V5.68007H604.697H600.697V84.0801H604.697ZM604.697 5.68007V9.68007H651.737V5.68007V1.68007H604.697V5.68007ZM651.737 5.68007H647.737V21.3601H651.737H655.737V5.68007H651.737ZM651.737 21.3601V17.3601H621.721V21.3601V25.3601H651.737V21.3601ZM621.721 21.3601H617.721V36.8161H621.721H625.721V21.3601H621.721ZM621.721 36.8161V40.8161H648.825V36.8161V32.8161H621.721V36.8161ZM648.825 36.8161H644.825V52.1601H648.825H652.825V36.8161H648.825ZM648.825 52.1601V48.1601H621.721V52.1601V56.1601H648.825V52.1601ZM621.721 52.1601H617.721V68.2881H621.721H625.721V52.1601H621.721ZM712.619 84.0801L709.143 86.0584L710.293 88.0801H712.619V84.0801ZM697.387 57.3121L700.864 55.3338L699.713 53.3121H697.387V57.3121ZM686.523 57.3121V53.3121H682.523V57.3121H686.523ZM686.523 84.0801V88.0801H690.523V84.0801H686.523ZM669.499 84.0801H665.499V88.0801H669.499V84.0801ZM669.499 5.68007V1.68007H665.499V5.68007H669.499ZM715.195 9.04008L713.306 12.566L713.331 12.5792L713.356 12.5921L715.195 9.04008ZM724.939 18.2241L721.486 20.2436L721.5 20.2677L721.515 20.2916L724.939 18.2241ZM724.715 45.2161L721.33 43.0848L721.33 43.0848L724.715 45.2161ZM714.299 54.4001L712.584 50.7864L708.645 52.6558L710.846 56.4196L714.299 54.4001ZM731.659 84.0801V88.0801H738.633L735.112 82.0605L731.659 84.0801ZM686.523 21.3601V17.3601H682.523V21.3601H686.523ZM686.523 41.6321H682.523V45.6321H686.523V41.6321ZM708.251 38.8321L705.587 35.8483L705.56 35.8724L705.533 35.897L708.251 38.8321ZM710.043 26.2881L706.57 28.2726L706.591 28.3096L706.613 28.3461L710.043 26.2881ZM706.123 22.7041L704.273 26.2504L704.335 26.2826L704.397 26.3126L706.123 22.7041ZM712.619 84.0801L716.096 82.1018L700.864 55.3338L697.387 57.3121L693.911 59.2904L709.143 86.0584L712.619 84.0801ZM697.387 57.3121V53.3121H686.523V57.3121V61.3121H697.387V57.3121ZM686.523 57.3121H682.523V84.0801H686.523H690.523V57.3121H686.523ZM686.523 84.0801V80.0801H669.499V84.0801V88.0801H686.523V84.0801ZM669.499 84.0801H673.499V5.68007H669.499H665.499V84.0801H669.499ZM669.499 5.68007V9.68007H701.195V5.68007V1.68007H669.499V5.68007ZM701.195 5.68007V9.68007C705.746 9.68007 709.755 10.6636 713.306 12.566L715.195 9.04008L717.084 5.51416C712.273 2.93658 706.948 1.68007 701.195 1.68007V5.68007ZM715.195 9.04008L713.356 12.5921C716.884 14.4194 719.564 16.9578 721.486 20.2436L724.939 18.2241L728.392 16.2045C725.684 11.5757 721.869 7.99143 717.035 5.4881L715.195 9.04008ZM724.939 18.2241L721.515 20.2916C723.497 23.574 724.523 27.3281 724.523 31.6641H728.523H732.523C732.523 25.9947 731.16 20.7888 728.363 16.1566L724.939 18.2241ZM728.523 31.6641H724.523C724.523 35.9521 723.446 39.7237 721.33 43.0848L724.715 45.2161L728.1 47.3473C731.061 42.6445 732.523 37.3814 732.523 31.6641H728.523ZM724.715 45.2161L721.33 43.0848C719.206 46.4584 716.32 49.0133 712.584 50.7864L714.299 54.4001L716.014 58.0138C721.089 55.6056 725.147 52.0377 728.1 47.3473L724.715 45.2161ZM714.299 54.4001L710.846 56.4196L728.206 86.0996L731.659 84.0801L735.112 82.0605L717.752 52.3805L714.299 54.4001ZM731.659 84.0801V80.0801H712.619V84.0801V88.0801H731.659V84.0801ZM686.523 21.3601H682.523V41.6321H686.523H690.523V21.3601H686.523ZM686.523 41.6321V45.6321H700.075V41.6321V37.6321H686.523V41.6321ZM700.075 41.6321V45.6321C704.254 45.6321 708.041 44.4784 710.969 41.7671L708.251 38.8321L705.533 35.897C704.43 36.9191 702.765 37.6321 700.075 37.6321V41.6321ZM708.251 38.8321L710.915 41.8158C713.917 39.1358 715.387 35.5938 715.387 31.5521H711.387H707.387C707.387 33.4837 706.767 34.795 705.587 35.8483L708.251 38.8321ZM711.387 31.5521H715.387C715.387 28.9271 714.798 26.4376 713.473 24.2301L710.043 26.2881L706.613 28.3461C707.081 29.1252 707.387 30.145 707.387 31.5521H711.387ZM710.043 26.2881L713.516 24.3035C712.194 21.9897 710.258 20.2478 707.849 19.0955L706.123 22.7041L704.397 26.3126C705.423 26.803 706.1 27.4504 706.57 28.2726L710.043 26.2881ZM706.123 22.7041L707.973 19.1577C705.584 17.9109 702.909 17.3601 700.075 17.3601V21.3601V25.3601C701.87 25.3601 703.228 25.7053 704.273 26.2504L706.123 22.7041ZM700.075 21.3601V17.3601H686.523V21.3601V25.3601H700.075V21.3601Z" fill="white"/>
</svg>
